<?xml version="1.0" standalone="no"?>
<!DOCTYPE svg PUBLIC "-//W3C//DTD SVG 20010904//EN"
 "http://www.w3.org/TR/2001/REC-SVG-20010904/DTD/svg10.dtd">
<svg version="1.0" xmlns="http://www.w3.org/2000/svg"
 width="900.000000pt" height="885.000000pt" viewBox="0 0 900.000000 885.000000"
 preserveAspectRatio="xMidYMid meet">
<metadata>
Created by potrace 1.10, written by Peter Selinger 2001-2011
</metadata>
<g transform="translate(0.000000,885.000000) scale(0.100000,-0.100000)"
fill="#00c2bd" stroke="none">
<path d="M4680 8547 c-63 -29 -93 -61 -126 -134 -29 -63 -34 -87 -36 -154 -1
-71 1 -82 23 -105 34 -37 59 -48 73 -34 8 8 7 14 -5 23 -32 24 -41 57 -35 121
20 186 147 332 222 253 72 -76 -9 -340 -113 -372 -13 -3 -23 -13 -23 -22 0
-22 54 -10 96 22 79 60 124 159 124 270 0 78 -13 106 -60 130 -34 18 -104 18
-140 2z"/>
<path d="M3243 8413 c-17 -6 -16 -24 2 -59 33 -63 11 -124 -44 -124 -86 0
-145 -133 -111 -250 13 -44 53 -90 79 -90 25 0 81 47 81 68 -1 15 -2 15 -11 0
-6 -11 -22 -18 -39 -18 -46 0 -65 38 -65 129 0 65 4 81 25 108 13 18 32 36 43
39 26 8 54 -22 63 -66 7 -34 7 -47 3 -109 -3 -39 27 -101 49 -101 36 0 43 14
26 48 -15 32 -17 44 -29 224 -12 170 -29 219 -72 201z"/>
<path d="M3451 8407 c-17 -21 -3 -49 23 -45 15 2 21 10 21 28 0 28 -26 38 -44
17z"/>
<path d="M4155 8391 c-42 -4 -80 -13 -96 -23 -40 -28 -69 -90 -75 -160 -6 -70
5 -99 47 -131 24 -17 30 -18 55 -6 39 20 42 39 7 39 -44 0 -53 16 -53 93 0 71
20 123 58 155 20 15 64 16 80 0 21 -21 14 -123 -12 -178 -23 -47 -23 -50 -5
-50 10 0 19 -5 19 -11 0 -34 -34 -120 -59 -148 -51 -58 -141 -35 -141 36 0 32
-16 37 -34 11 -23 -32 -20 -54 10 -77 58 -46 191 -16 233 52 35 57 74 398 46
402 -5 1 -41 -1 -80 -4z"/>
<path d="M4999 8383 c-1 -5 -2 -24 -3 -43 -3 -36 -18 -84 -42 -132 -22 -42
-18 -104 8 -122 27 -19 59 -21 76 -4 19 19 14 28 -12 28 -15 0 -27 7 -31 19
-6 19 25 125 51 173 19 35 18 74 -2 82 -22 8 -44 8 -45 -1z"/>
<path d="M3811 8361 c-33 -9 -37 -27 -8 -35 43 -10 52 -45 39 -152 -14 -127
-9 -138 54 -114 26 10 26 11 9 30 -16 17 -17 32 -12 113 7 99 -1 130 -38 152
-11 7 -31 9 -44 6z"/>
<path d="M5197 8353 c-2 -5 -15 -39 -27 -77 -12 -38 -33 -85 -46 -104 -27 -39
-28 -49 -14 -86 7 -19 17 -26 36 -26 23 0 25 3 20 25 -4 14 -2 33 3 42 6 10
19 45 30 78 11 33 27 77 36 98 8 21 13 42 10 47 -7 12 -42 13 -48 3z"/>
<path d="M3657 8332 c-13 -3 -16 -8 -10 -20 4 -10 9 -73 10 -142 0 -69 1 -131
2 -138 1 -8 10 -12 24 -10 20 3 22 9 29 98 3 52 9 107 13 121 4 16 2 29 -4 33
-6 4 -11 18 -11 30 0 25 -20 35 -53 28z"/>
<path d="M5356 8295 c4 -15 -2 -41 -14 -67 -87 -185 -90 -193 -69 -201 16 -6
47 11 47 25 0 22 60 137 81 157 41 38 23 111 -27 111 -21 0 -23 -4 -18 -25z"/>
<path d="M5873 8300 c-35 -21 -63 -66 -63 -101 0 -12 21 -55 46 -96 37 -60 44
-79 39 -103 -8 -34 -61 -80 -93 -80 -24 0 -30 -15 -8 -23 22 -9 95 12 115 32
54 54 54 105 1 194 -22 36 -40 76 -40 88 0 26 64 89 91 89 25 0 66 -38 71 -65
2 -12 13 -21 25 -23 17 -3 24 3 29 24 8 33 -9 48 -80 69 -66 20 -95 19 -133
-5z"/>
<path d="M5477 8282 c-21 -23 -22 -33 -2 -25 9 3 21 -2 29 -12 16 -22 50 -16
54 9 4 21 -22 46 -48 46 -9 0 -24 -8 -33 -18z"/>
<path d="M3435 8271 c-3 -6 -1 -20 5 -31 6 -11 14 -74 17 -140 7 -130 15 -150
53 -130 15 8 19 17 14 28 -4 9 -12 76 -18 147 l-11 130 -27 3 c-14 2 -29 -2
-33 -7z"/>
<path d="M2872 8097 c-23 -25 -33 -62 -10 -39 16 16 53 15 66 0 13 -17 29 -79
37 -149 8 -70 23 -94 53 -85 22 7 29 34 13 52 -4 5 -16 51 -26 102 -10 54 -26
103 -37 117 -25 32 -67 33 -96 2z"/>
<path d="M6499 8093 c-11 -28 -83 -123 -179 -233 -94 -107 -103 -130 -56 -130
13 0 31 14 45 35 13 20 50 60 83 90 32 30 58 62 58 73 0 10 25 47 55 82 60 69
65 84 36 100 -28 14 -30 13 -42 -17z"/>
<path d="M6120 8069 c-63 -39 -120 -120 -120 -171 0 -68 109 -125 163 -84 27
21 21 26 -33 26 -42 0 -52 4 -66 25 -16 24 -16 28 1 66 21 46 95 121 128 130
38 10 72 -4 75 -31 5 -38 18 -44 41 -21 26 26 27 40 4 47 -10 3 -30 12 -45 20
-39 21 -107 18 -148 -7z"/>
<path d="M2745 8050 c-4 -6 0 -22 9 -35 9 -14 25 -75 35 -136 20 -116 29 -136
55 -126 18 7 20 34 6 72 -6 15 -11 61 -12 103 -1 60 -6 83 -21 105 -21 27 -60
36 -72 17z"/>
<path d="M5672 8008 c-6 -6 -12 -23 -12 -35 0 -18 10 -28 42 -43 50 -22 67
-16 40 14 -11 11 -22 32 -24 46 -3 28 -27 37 -46 18z"/>
<path d="M2575 7956 c-11 -7 -32 -16 -47 -20 -16 -3 -28 -11 -28 -16 0 -6 -8
-10 -18 -10 -26 0 -65 -92 -57 -134 21 -104 71 -186 114 -186 19 0 88 66 79
76 -3 3 -19 -1 -35 -9 -37 -19 -54 -10 -83 45 -43 83 -24 218 31 218 53 0 74
-37 89 -150 6 -48 14 -69 30 -82 44 -36 92 -8 55 32 -14 16 -50 126 -71 223
-7 30 -28 35 -59 13z"/>
<path d="M6525 7913 c4 -10 10 -26 12 -35 6 -21 -50 -109 -101 -157 -43 -42
-46 -68 -9 -82 28 -10 43 0 43 30 0 8 27 47 59 86 69 83 81 114 57 150 -20 30
-73 37 -61 8z"/>
<path d="M4245 7823 c-56 -3 -271 -30 -355 -44 -49 -8 -86 -15 -230 -44 -19
-4 -55 -13 -80 -21 -25 -7 -74 -22 -110 -33 -199 -60 -402 -141 -560 -223
-100 -52 -268 -147 -285 -161 -5 -4 -44 -30 -85 -58 -109 -71 -113 -74 -250
-183 -387 -308 -708 -712 -932 -1174 -45 -92 -85 -176 -89 -187 -4 -11 -15
-38 -24 -60 -24 -57 -102 -293 -114 -340 -5 -22 -18 -76 -29 -120 -27 -105
-58 -295 -78 -475 -31 -275 -7 -738 52 -1000 9 -41 22 -102 30 -135 34 -160
77 -295 155 -488 104 -261 304 -604 474 -817 355 -445 727 -747 1210 -985 143
-70 158 -76 325 -137 163 -60 195 -70 345 -108 217 -54 311 -70 560 -96 177
-18 508 -15 665 6 368 50 631 115 895 222 39 15 74 28 79 28 19 0 350 173 463
241 284 174 611 450 803 679 30 36 61 71 68 79 22 23 125 162 183 246 157 228
281 476 414 825 7 19 21 62 30 95 10 33 22 71 26 85 5 14 13 45 18 70 6 25 17
77 26 115 49 211 72 403 81 680 11 316 -33 676 -122 990 -26 93 -82 262 -93
282 -5 10 -19 46 -30 80 -11 34 -46 115 -77 180 -218 452 -471 789 -854 1133
-52 47 -105 92 -116 100 -12 8 -57 42 -100 75 -84 64 -232 165 -241 165 -3 0
-17 8 -31 19 -26 18 -108 63 -275 149 -42 23 -130 62 -195 87 -64 26 -126 51
-137 56 -53 23 -311 101 -395 118 -30 6 -85 18 -122 26 -153 33 -378 55 -610
58 -128 2 -255 2 -283 0z m245 -283 c0 -11 -3 -20 -8 -20 -10 0 -112 -137
-112 -150 0 -13 52 -84 107 -149 21 -24 38 -49 38 -55 0 -6 -21 -12 -47 -14
-45 -3 -48 -1 -54 25 -8 29 -68 117 -98 142 -28 23 -39 0 -33 -66 3 -32 9 -70
12 -84 6 -24 4 -27 -26 -31 -54 -8 -72 0 -63 31 11 37 5 279 -7 319 -16 48 -6
62 40 62 l39 0 -5 -75 c-7 -89 6 -118 39 -88 11 10 35 39 54 65 26 35 33 53
29 71 -7 28 3 34 63 36 26 1 32 -3 32 -19z m-468 -77 c14 -16 29 -38 32 -50 9
-29 -10 -99 -29 -107 -26 -10 -16 -29 50 -101 36 -38 65 -76 65 -82 0 -7 -12
-16 -27 -19 -22 -6 -31 -1 -56 27 -97 111 -107 120 -130 117 -29 -4 -34 -44
-12 -111 9 -27 13 -53 8 -58 -4 -4 -24 -10 -44 -14 l-36 -7 -6 84 c-6 85 -40
257 -57 288 -7 12 -6 21 3 28 16 14 99 29 163 31 43 1 54 -3 76 -26z m1156 13
c15 -7 46 -16 70 -19 24 -3 58 -17 77 -32 31 -23 35 -32 35 -71 0 -42 -24 -84
-49 -84 -19 0 -19 -32 0 -65 14 -23 19 -44 15 -59 -18 -70 -109 -119 -171 -91
-16 7 -48 16 -69 19 -22 3 -47 12 -55 21 -14 13 -14 18 1 43 19 31 78 268 78
312 0 25 10 37 33 39 4 1 20 -5 35 -13z m-1568 -203 c46 -65 95 -133 109 -152
58 -74 57 -68 16 -85 -59 -25 -75 -21 -75 17 0 40 -24 77 -51 77 -26 0 -91
-28 -101 -43 -14 -22 -8 -56 13 -76 l20 -19 -22 -21 c-21 -20 -68 -28 -82 -15
-3 3 -1 18 4 31 5 14 11 76 13 137 4 111 14 230 21 254 3 6 15 12 29 12 19 0
40 -23 106 -117z m1971 81 c8 -8 27 -14 41 -14 14 0 31 -6 38 -14 6 -8 24 -16
38 -18 31 -3 39 -29 23 -71 -13 -34 -37 -26 -56 20 -15 35 -70 68 -98 57 -21
-8 -49 -76 -45 -110 2 -23 8 -30 31 -32 16 -2 34 2 42 8 34 28 48 -27 18 -70
-9 -14 -18 -27 -20 -30 -3 -3 -17 9 -31 27 -34 39 -70 52 -78 26 -3 -10 -14
-37 -25 -61 -24 -54 -24 -55 10 -75 36 -21 84 -22 101 -2 15 18 60 20 60 3 0
-7 -9 -28 -20 -45 -21 -36 -58 -44 -79 -19 -6 8 -24 16 -39 19 -43 8 -116 37
-131 52 -13 13 -12 18 6 37 12 13 28 43 36 68 9 25 29 77 45 115 16 39 33 86
37 105 4 19 9 38 12 42 6 11 65 -2 84 -18z m-771 1 c6 -3 10 -15 10 -26 0 -17
-7 -19 -59 -19 -67 0 -94 18 -70 46 10 13 24 15 61 11 27 -4 53 -9 58 -12z
m-1473 -97 c12 -14 17 -36 18 -79 0 -55 -3 -63 -31 -87 -17 -15 -45 -35 -63
-44 l-32 -17 22 -43 c12 -24 30 -53 41 -65 23 -25 18 -37 -23 -59 -35 -18 -59
-6 -59 30 0 21 -75 203 -91 221 -5 5 -9 16 -9 24 0 8 -12 27 -26 42 -14 15
-24 32 -20 37 7 13 90 52 140 67 48 14 106 2 133 -27z m2551 -58 c38 -24 39
-30 8 -67 -14 -16 -48 -74 -76 -128 -29 -55 -56 -104 -61 -109 -18 -20 -8 -45
27 -65 45 -27 50 -26 87 5 27 23 32 24 45 10 14 -13 12 -19 -12 -56 -29 -44
-38 -45 -96 -15 -14 8 -53 28 -87 45 -35 16 -63 35 -63 41 0 6 13 28 28 48 15
20 42 63 59 96 17 33 43 82 57 110 15 27 26 59 25 70 -3 43 8 46 59 15z m316
-175 c31 -29 33 -41 6 -55 -10 -6 -43 -45 -71 -88 -77 -115 -93 -137 -101
-140 -19 -9 -6 -52 21 -71 36 -26 51 -26 95 0 32 19 37 19 42 5 4 -10 -5 -30
-20 -51 -38 -50 -62 -50 -118 1 -20 18 -55 42 -78 54 -47 24 -50 42 -12 79 49
48 172 234 172 260 0 38 26 41 64 6z m-3476 -63 c4 -29 158 -261 178 -269 8
-3 30 7 50 22 32 25 35 30 32 73 -4 59 20 69 46 20 22 -40 18 -77 -9 -92 -11
-6 -45 -30 -77 -53 -67 -51 -101 -59 -106 -25 -4 30 -156 258 -182 274 -27 17
-25 32 7 58 33 26 57 22 61 -8z m2077 -126 c209 -30 346 -65 580 -150 154 -56
421 -206 580 -325 160 -121 316 -273 436 -426 117 -149 173 -227 193 -266 3
-8 20 -36 36 -64 90 -150 164 -325 225 -530 10 -33 22 -71 26 -85 13 -38 27
-108 44 -217 42 -266 35 -644 -16 -893 -27 -128 -92 -347 -124 -415 -7 -16
-20 -46 -28 -65 -153 -360 -406 -694 -728 -962 -145 -121 -484 -317 -644 -373
-27 -9 -59 -21 -70 -26 -128 -55 -417 -120 -619 -139 -270 -25 -603 2 -851 70
-44 12 -93 26 -110 30 -169 45 -464 187 -650 312 -173 117 -169 113 -162 138
5 19 2 21 -17 16 -18 -4 -35 4 -72 36 -63 54 -195 187 -261 263 -72 84 -213
275 -213 290 0 2 -12 23 -27 47 -44 68 -50 78 -94 168 -73 149 -119 268 -167
435 -19 66 -26 95 -52 220 -6 28 -17 111 -25 185 -43 409 10 800 161 1185 42
106 159 338 190 374 12 14 29 42 39 61 26 51 116 171 210 280 245 284 581 523
941 670 54 22 106 40 115 40 10 0 21 5 24 10 3 6 18 10 32 10 14 0 39 6 56 14
29 13 146 43 237 62 19 4 96 15 170 25 162 22 462 19 635 -5z m1729 -33 c23
-21 61 -54 84 -73 48 -40 51 -54 20 -87 -32 -34 -48 -29 -48 15 0 29 -7 46
-31 70 -17 18 -39 32 -48 32 -18 0 -81 -75 -81 -97 0 -19 43 -44 71 -41 14 2
24 -3 26 -12 4 -18 -55 -82 -71 -77 -6 2 -14 21 -17 41 -6 36 -21 55 -43 56
-16 0 -96 -92 -95 -109 0 -9 18 -31 40 -50 l40 -34 34 19 c27 14 37 16 47 6 9
-9 5 -19 -22 -47 -19 -19 -39 -35 -44 -35 -6 0 -39 26 -73 58 -35 31 -74 66
-88 77 -31 25 -31 37 -1 55 33 20 206 216 206 233 0 17 20 37 38 37 8 0 33
-17 56 -37z m-4051 -13 c14 -11 28 -20 31 -20 3 0 56 -34 117 -75 61 -41 117
-75 124 -75 51 0 59 -36 15 -68 -38 -28 -58 -28 -69 1 -8 20 -50 57 -65 57
-16 0 -86 -80 -86 -99 0 -22 34 -64 61 -73 11 -4 7 -13 -16 -36 -40 -41 -65
-42 -65 -2 0 17 -4 38 -10 48 -5 9 -19 44 -29 77 -11 33 -30 85 -41 115 -47
122 -51 144 -33 158 23 17 36 15 66 -8z m4347 -282 c51 -63 60 -79 60 -114 0
-58 -46 -102 -114 -106 l-49 -3 -19 -55 c-10 -30 -22 -71 -26 -90 -6 -28 -13
-35 -32 -35 -17 0 -26 7 -30 25 -6 24 16 107 42 158 13 25 5 47 -25 66 -13 8
-25 3 -57 -29 -22 -21 -42 -47 -46 -57 -8 -26 -25 -21 -54 14 l-24 31 24 16
c48 32 245 213 252 232 13 34 36 21 98 -53z m-4580 27 c40 -21 60 -53 60 -97
0 -43 19 -58 74 -58 19 0 38 -4 41 -10 3 -5 24 -10 45 -10 21 0 42 -5 46 -12
11 -18 -45 -61 -70 -53 -118 33 -136 36 -163 23 -46 -22 -40 -42 26 -84 33
-22 60 -45 60 -53 1 -17 -38 -61 -53 -61 -6 1 -20 15 -31 32 -24 38 -200 196
-232 209 -13 5 -23 17 -23 29 0 27 102 132 142 147 44 15 45 15 78 -2z m-199
-326 c87 -44 159 -134 159 -199 0 -32 -52 -114 -87 -137 -72 -47 -246 27 -298
127 -28 56 -28 97 2 150 49 88 127 109 224 59z m4995 12 c37 -22 84 -99 84
-136 0 -99 -159 -223 -272 -213 -40 4 -54 12 -92 52 -53 54 -63 83 -47 138 38
125 230 218 327 159z m227 -364 c30 -36 67 -104 67 -124 0 -16 -40 -43 -63
-43 -16 0 -18 5 -13 28 19 75 19 78 -9 101 -34 26 -46 26 -74 4 -18 -15 -24
-34 -30 -100 -11 -113 -33 -143 -112 -158 -31 -6 -41 -2 -70 23 -37 32 -85
133 -75 157 7 20 51 39 71 31 14 -5 14 -8 0 -35 -26 -52 -19 -88 22 -110 30
-16 38 -14 71 14 27 23 30 31 34 107 5 78 6 83 39 110 49 41 105 39 142 -5z
m-5603 -88 c16 -17 268 -135 283 -132 9 3 17 13 17 23 0 10 5 22 10 25 18 11
11 46 -16 77 -44 54 8 65 69 16 l28 -23 -51 -96 c-61 -117 -75 -132 -98 -102
-21 26 -263 153 -292 153 -29 0 -33 19 -15 64 16 38 16 38 38 20 12 -11 24
-22 27 -25z m-65 -170 c0 -19 -6 -25 -28 -27 -16 -2 -31 -11 -34 -20 -3 -9
-13 -25 -21 -34 -24 -29 -4 -57 57 -79 81 -28 111 -3 77 63 -9 17 -11 30 -5
34 13 8 58 -4 87 -22 19 -12 21 -18 11 -30 -6 -8 -18 -14 -25 -14 -13 0 -34
-37 -34 -60 0 -15 86 -50 123 -50 34 0 37 -2 37 -29 0 -37 -9 -61 -23 -61 -7
0 -34 11 -62 25 -86 43 -236 97 -274 99 -35 1 -36 2 -33 36 2 19 10 45 18 57
8 12 14 31 14 41 0 10 7 27 15 38 8 10 15 27 15 37 0 21 38 37 65 27 12 -4 20
-16 20 -31z m5810 -16 c9 -21 24 -51 31 -66 8 -16 14 -36 14 -46 0 -9 7 -26
15 -37 31 -41 9 -84 -44 -84 -28 0 -35 16 -17 42 33 46 7 128 -39 128 -13 0
-91 -34 -103 -45 -11 -10 14 -47 39 -60 39 -21 37 -43 -6 -61 -59 -24 -65 -20
-62 39 2 51 1 52 -27 55 -28 3 -105 -23 -117 -40 -11 -16 3 -67 25 -86 11 -11
32 -22 46 -24 37 -5 39 -43 3 -55 -46 -16 -69 -1 -88 59 -9 29 -26 71 -36 94
-28 59 -25 84 9 84 15 0 70 16 122 36 52 20 114 44 138 53 24 9 48 24 53 34
14 25 24 21 44 -20z m170 -1288 c-6 -128 -36 -363 -56 -454 -19 -79 -40 -164
-54 -216 -8 -27 -16 -59 -19 -70 -4 -18 -49 -144 -71 -200 -55 -142 -124 -289
-189 -405 -14 -25 -29 -52 -33 -60 -12 -25 -168 -260 -188 -283 -6 -7 -28 -34
-50 -62 -213 -271 -518 -543 -804 -719 -128 -79 -316 -174 -454 -230 -118 -48
-141 -53 -152 -35 -9 13 23 49 44 49 9 1 34 9 56 20 22 11 44 19 49 20 18 0
304 143 376 188 253 156 442 306 620 489 171 175 232 247 344 411 89 129 276
466 276 497 0 2 14 33 30 68 17 36 30 72 30 81 0 8 4 17 9 20 5 3 12 23 16 43
4 21 11 43 15 48 5 6 13 29 19 50 5 22 21 81 34 130 22 82 34 139 66 305 6 30
16 111 21 180 20 249 23 275 33 288 9 11 13 10 25 -5 10 -14 12 -46 7 -148z
m-6131 133 c3 -13 8 -81 11 -153 10 -204 55 -487 100 -626 8 -26 15 -55 15
-65 0 -11 7 -32 15 -47 8 -16 24 -59 35 -95 11 -37 24 -76 30 -87 17 -37 60
-135 86 -196 14 -34 36 -79 50 -100 13 -21 24 -41 24 -45 0 -20 164 -273 259
-399 151 -202 434 -479 625 -613 89 -63 224 -152 230 -152 3 0 34 -17 68 -38
64 -39 236 -124 318 -157 25 -10 68 -28 95 -40 28 -13 60 -26 73 -30 15 -4 22
-13 20 -23 -5 -23 -63 -19 -120 7 -24 10 -95 41 -158 69 -111 48 -183 84 -245
122 -16 10 -48 28 -70 40 -123 67 -334 223 -485 359 -58 52 -109 100 -115 105
-115 123 -257 289 -333 391 -23 31 -132 196 -132 200 0 2 -23 44 -52 92 -42
71 -112 216 -178 368 -15 35 -97 288 -114 350 -47 179 -73 324 -91 524 -16
180 -19 244 -8 254 15 15 43 6 47 -15z m2307 -2615 c40 -8 57 -30 36 -46 -18
-13 -57 -117 -57 -151 0 -11 -6 -38 -14 -61 -18 -54 -36 -131 -36 -157 0 -11
11 -36 26 -55 22 -29 30 -33 74 -33 79 0 91 18 141 225 22 92 29 143 25 173
-7 52 7 61 65 42 55 -19 67 -35 39 -58 -20 -16 -39 -76 -70 -219 -26 -119 -53
-169 -108 -197 -74 -38 -210 -2 -249 67 -17 30 -16 134 1 188 25 79 48 196 46
235 -3 65 -2 67 26 60 15 -4 39 -10 55 -13z m1472 -69 c75 -38 108 -88 132
-201 27 -125 -14 -228 -108 -271 -53 -24 -152 -52 -197 -55 -35 -2 -35 -2 -32
38 4 52 -72 366 -101 416 -26 46 -20 54 53 64 25 3 52 10 60 16 25 15 158 11
193 -7z m-816 -50 c36 -3 67 -12 74 -20 12 -15 6 -81 -9 -96 -14 -14 -40 2
-51 32 -11 33 -38 43 -111 44 l-45 1 -7 -85 c-5 -55 -3 -89 4 -97 17 -21 64
-15 97 13 43 36 66 26 57 -24 -3 -20 -6 -49 -6 -63 0 -39 -28 -46 -57 -15 -28
30 -69 43 -92 29 -23 -15 -32 -137 -13 -180 21 -47 9 -57 -61 -49 -33 3 -63 8
-66 11 -3 3 3 18 12 34 22 38 52 386 36 427 -17 48 -9 52 88 48 48 -3 116 -7
150 -10z m405 -7 c9 -14 10 -59 2 -81 -9 -25 -24 -19 -59 21 -40 46 -90 51
-130 13 -52 -49 -18 -119 77 -160 112 -47 155 -100 143 -178 -4 -25 -14 -56
-23 -70 -36 -55 -182 -84 -249 -48 -29 14 -33 22 -33 57 0 57 24 63 63 16 27
-34 33 -37 82 -37 46 0 55 3 70 26 18 29 16 93 -4 118 -6 7 -48 31 -94 54
-111 55 -122 68 -122 148 0 58 3 66 32 96 24 23 46 34 80 39 62 10 155 2 165
-14z"/>
<path d="M3901 7450 c-39 -9 -45 -29 -30 -101 12 -54 18 -65 37 -67 30 -5 82
48 82 83 0 53 -45 96 -89 85z"/>
<path d="M5180 7415 c-7 -8 -13 -41 -14 -73 l-1 -57 42 -3 c32 -2 46 2 63 20
37 40 37 68 1 100 -35 31 -72 36 -91 13z"/>
<path d="M5136 7238 c-16 -27 -28 -100 -20 -122 3 -8 21 -18 40 -22 42 -8 76
12 94 56 17 40 -1 77 -47 97 -43 18 -50 17 -67 -9z"/>
<path d="M3505 7278 c-4 -9 -5 -40 -3 -69 3 -52 4 -54 34 -57 19 -2 36 3 44
13 12 14 11 22 -4 50 -10 19 -29 44 -42 56 -20 18 -24 20 -29 7z"/>
<path d="M3169 7231 l-23 -19 18 -38 c39 -80 45 -89 63 -92 10 -1 31 10 46 26
24 25 27 35 22 66 -13 66 -78 96 -126 57z"/>
<path d="M5120 6666 c0 -19 5 -38 10 -41 6 -3 10 2 10 12 0 10 3 28 6 41 5 16
2 22 -10 22 -12 0 -16 -9 -16 -34z"/>
<path d="M5070 6645 c0 -8 5 -15 10 -15 6 0 10 7 10 15 0 8 -4 15 -10 15 -5 0
-10 -7 -10 -15z"/>
<path d="M3902 6610 c0 -19 2 -27 5 -17 2 9 2 25 0 35 -3 9 -5 1 -5 -18z"/>
<path d="M4142 6555 c-33 -33 -33 -35 -20 -71 7 -20 25 -50 39 -65 51 -55 159
-24 159 46 0 17 -7 28 -23 34 -21 8 -38 32 -51 74 -10 31 -66 22 -104 -18z"/>
<path d="M4370 6575 c0 -8 5 -15 10 -15 6 0 10 7 10 15 0 8 -4 15 -10 15 -5 0
-10 -7 -10 -15z"/>
<path d="M3792 6554 c-15 -10 -22 -24 -20 -37 3 -19 9 -22 39 -19 39 3 65 -17
55 -43 -8 -22 -41 -18 -59 8 l-15 22 -37 -37 -37 -37 30 -31 c25 -25 39 -30
77 -30 65 0 95 31 94 97 -2 80 -9 94 -59 109 -25 8 -45 14 -45 14 0 0 -11 -7
-23 -16z"/>
<path d="M5064 6529 c-3 -6 -17 -8 -32 -4 -35 9 -42 -7 -42 -91 0 -97 20 -124
92 -124 44 0 54 4 84 34 39 39 42 52 13 61 -25 8 -42 50 -34 87 6 24 3 29 -20
38 -34 13 -52 13 -61 -1z m41 -69 c11 -18 -15 -50 -40 -50 -27 0 -34 27 -13
48 14 14 45 16 53 2z"/>
<path d="M3450 6488 c0 -32 -4 -39 -34 -53 -19 -9 -39 -14 -44 -11 -5 3 -7 -5
-5 -17 3 -14 -2 -29 -11 -36 -9 -8 -16 -22 -16 -32 0 -23 57 -88 87 -100 51
-19 133 44 133 102 0 26 -4 29 -30 29 -39 0 -73 50 -66 96 2 17 0 37 -5 45 -6
10 -9 3 -9 -23z m14 -134 c9 -3 16 -17 16 -31 0 -19 -4 -24 -21 -21 -31 4 -49
35 -29 48 18 12 15 11 34 4z"/>
<path d="M5497 6473 c-4 -3 -7 -15 -7 -25 0 -26 24 -17 28 10 3 21 -8 29 -21
15z"/>
<path d="M3575 6429 c-10 -15 1 -23 20 -15 9 3 13 10 10 16 -8 13 -22 13 -30
-1z"/>
<path d="M5354 6365 c-9 -23 14 -45 26 -25 5 8 8 19 7 24 -6 17 -27 18 -33 1z"/>
<path d="M5500 6361 c0 -5 -12 -24 -26 -41 -21 -24 -32 -30 -50 -26 -28 7 -37
-6 -29 -43 9 -41 46 -77 93 -92 39 -11 44 -10 76 14 19 15 44 43 56 62 l22 36
-21 15 c-11 8 -21 21 -21 28 0 21 -45 56 -73 56 -15 0 -27 -4 -27 -9z m44 -97
c8 -21 -11 -44 -36 -44 -21 0 -33 22 -24 45 7 20 52 19 60 -1z"/>
<path d="M3986 5575 c-251 -250 -456 -458 -456 -463 0 -16 19 -18 133 -16 107
1 108 1 140 32 35 34 56 41 58 20 7 -56 4 -165 -4 -175 -7 -10 -156 -13 -681
-13 l-672 0 -44 -45 c-43 -44 -80 -59 -80 -32 0 7 -6 22 -14 32 -11 15 -17 17
-28 8 -7 -6 -31 -13 -53 -15 -35 -3 -40 -6 -43 -31 -4 -37 12 -55 51 -59 50
-5 47 -36 -8 -86 -45 -42 -56 -69 -32 -77 6 -3 39 -6 71 -8 33 -2 61 -8 63
-13 5 -16 -81 -64 -105 -57 -38 9 -55 -15 -49 -68 6 -51 -3 -62 -41 -52 -11 2
-23 0 -26 -6 -7 -11 41 -15 169 -16 28 0 55 -3 60 -7 7 -4 11 -112 10 -308 l0
-302 -35 -12 c-34 -11 -35 -13 -31 -56 3 -39 0 -47 -25 -67 -26 -20 -27 -23
-9 -29 10 -4 27 -16 37 -26 10 -10 25 -18 33 -18 23 0 38 -40 36 -100 -1 -30
-3 -98 -5 -150 -2 -52 -2 -87 1 -77 6 23 30 22 43 -2 8 -16 61 -51 77 -51 1 0
3 11 3 25 0 33 39 58 75 49 l27 -7 -4 54 -3 54 723 2 c398 1 726 3 728 6 3 2
4 237 4 521 l0 516 170 -1 170 0 0 -237 c0 -226 -5 -272 -28 -258 -14 9 -22
-18 -21 -72 1 -56 9 -77 29 -77 13 0 16 -31 20 -200 l5 -200 26 -3 c49 -6 55
12 47 149 -4 77 -3 147 4 184 12 69 12 143 1 445 -5 118 -7 227 -5 243 l4 27
162 -2 161 -3 2 -514 c1 -282 4 -516 6 -518 7 -6 1647 -4 1658 3 6 4 9 73 8
177 -1 95 -1 252 0 350 l1 177 25 0 c14 0 25 4 25 9 0 5 12 24 26 41 24 27 31
31 63 26 43 -7 70 6 54 26 -8 10 -8 20 2 38 19 34 19 35 -10 48 -14 6 -25 18
-25 26 0 32 -28 40 -92 27 -33 -7 -62 -10 -65 -7 -3 3 -6 66 -7 141 -2 121 0
137 17 152 22 21 54 6 49 -23 -9 -49 -10 -81 -5 -101 7 -29 56 -45 118 -37 28
3 77 7 110 9 74 4 73 3 56 14 -7 5 -30 6 -51 4 -44 -6 -55 6 -39 41 15 33 -12
82 -39 71 -44 -18 -52 -18 -52 4 0 12 5 31 10 42 13 24 -3 59 -27 59 -9 0 -41
26 -71 58 -30 31 -79 83 -110 115 l-55 57 -671 0 c-369 0 -676 4 -681 8 -6 4
-11 46 -11 95 -1 81 1 87 20 87 11 0 32 -12 47 -26 27 -25 33 -27 145 -28 79
-1 119 3 121 10 5 14 -904 924 -922 924 -7 0 -218 -205 -469 -455z m577 -102
c51 -30 97 -109 97 -165 0 -113 -76 -195 -195 -209 -43 -5 -57 -2 -101 22
-117 66 -145 187 -70 305 11 18 25 33 29 34 5 0 21 9 36 19 48 34 139 31 204
-6z m216 -537 c7 -5 11 -52 11 -131 0 -103 -3 -124 -16 -129 -9 -3 -155 -6
-325 -6 l-309 0 -8 23 c-12 35 -7 237 6 246 14 8 627 6 641 -3z m1905 -352 c9
-3 16 -12 16 -19 0 -18 -37 -48 -49 -40 -15 8 -14 38 1 53 14 14 12 14 32 6z
m-4344 -59 c15 -18 6 -45 -13 -45 -21 0 -38 25 -31 44 8 20 28 21 44 1z m677
-77 c11 -14 8 -331 -2 -348 -8 -13 -311 -13 -336 0 -18 10 -19 23 -19 167 0
132 3 159 17 175 14 16 34 18 173 18 114 0 160 -3 167 -12z m561 0 c8 -8 12
-62 12 -175 0 -160 0 -164 -22 -172 -37 -13 -318 -14 -334 0 -11 9 -14 45 -14
166 0 87 4 163 10 174 10 18 23 19 173 19 114 0 167 -4 175 -12z m2097 2 c3
-5 7 -81 8 -168 2 -122 -1 -163 -12 -175 -11 -15 -37 -17 -170 -17 -109 0
-161 4 -169 12 -8 8 -12 60 -12 169 0 130 3 160 16 173 13 13 43 16 174 16 94
0 161 -4 165 -10z m553 -2 c8 -8 12 -62 12 -175 0 -161 0 -164 -22 -171 -33
-12 -310 -14 -327 -3 -11 7 -13 43 -12 172 1 140 4 166 18 177 23 17 314 17
331 0z m-3212 -510 c11 -17 14 -321 4 -338 -7 -11 -41 -14 -174 -13 -91 1
-170 4 -175 8 -7 4 -11 63 -11 162 0 132 3 159 17 175 14 16 34 18 174 18 110
0 160 -4 165 -12z m555 2 c18 -10 19 -23 19 -175 0 -106 -4 -166 -11 -170 -6
-4 -83 -8 -171 -9 -122 -2 -163 1 -173 11 -11 10 -13 50 -11 171 1 87 6 163
10 170 9 15 308 17 337 2z m2097 1 c19 -12 27 -295 9 -331 -12 -24 -13 -24
-167 -26 -85 0 -163 3 -172 8 -16 8 -18 26 -18 168 0 201 -11 190 190 190 80
0 151 -4 158 -9z m560 -3 c14 -14 18 -333 4 -342 -4 -2 -78 -7 -164 -10 -115
-4 -160 -2 -173 8 -15 11 -17 32 -16 171 1 98 6 164 13 172 14 18 318 19 336
1z"/>
<path d="M4437 5303 c-12 -11 -8 -23 8 -23 8 0 15 7 15 15 0 16 -12 20 -23 8z"/>
<path d="M2830 6005 c0 -8 8 -23 18 -33 26 -26 33 -51 22 -73 -8 -15 -15 -17
-29 -10 -14 8 -23 5 -38 -12 -31 -34 -34 -53 -12 -80 24 -31 26 -92 3 -105
-28 -16 -7 -30 56 -37 51 -6 64 -4 95 15 54 34 68 59 53 101 -12 34 -76 131
-90 137 -5 2 -8 12 -8 22 0 9 -7 23 -15 30 -8 7 -15 18 -15 26 0 7 -9 18 -20
24 -16 9 -20 8 -20 -5z m80 -193 c30 -24 18 -42 -26 -42 -41 0 -57 26 -29 46
24 18 28 18 55 -4z"/>
<path d="M2720 6000 c0 -5 7 -10 15 -10 8 0 15 -4 15 -10 0 -5 5 -10 10 -10 6
0 5 8 -2 20 -13 21 -38 27 -38 10z"/>
<path d="M2660 5982 c0 -13 68 -72 82 -72 8 1 7 5 -4 14 -10 7 -18 18 -18 23
0 13 -34 43 -48 43 -7 0 -12 -4 -12 -8z"/>
<path d="M2640 5895 c23 -25 50 -33 50 -16 0 11 -45 41 -61 41 -7 0 -2 -11 11
-25z"/>
<path d="M6207 5843 c-6 -16 -17 -32 -24 -36 -7 -4 -13 -12 -13 -17 0 -6 -20
-38 -43 -73 -24 -35 -49 -78 -55 -95 -10 -28 -8 -35 15 -62 44 -53 76 -64 150
-50 64 12 64 13 44 32 -27 25 -28 79 -1 103 26 23 25 27 -6 75 -21 31 -30 38
-43 30 -9 -5 -23 -5 -30 -1 -17 11 -6 44 25 78 28 30 30 43 9 43 -9 0 -21 -12
-28 -27z m11 -175 c21 -21 13 -37 -24 -44 -47 -9 -65 8 -39 36 20 23 45 26 63
8z"/>
<path d="M6297 5830 c-21 -21 -34 -41 -29 -44 8 -5 82 65 82 78 0 14 -17 3
-53 -34z"/>
<path d="M6353 5803 c-37 -44 -27 -57 14 -19 15 14 31 26 35 26 5 0 8 7 8 15
0 26 -24 16 -57 -22z"/>
<path d="M6414 5755 c-26 -23 -27 -25 -8 -25 19 0 54 28 54 43 0 13 -17 7 -46
-18z"/>
<path d="M2540 5706 c0 -9 7 -16 16 -16 17 0 14 22 -4 28 -7 2 -12 -3 -12 -12z"/>
<path d="M2675 5700 c3 -5 15 -10 26 -10 10 0 19 5 19 10 0 6 -12 10 -26 10
-14 0 -23 -4 -19 -10z"/>
<path d="M2400 5672 c0 -13 23 -32 39 -32 11 0 10 4 -4 20 -19 21 -35 26 -35
12z"/>
<path d="M2594 5635 c-4 -8 -13 -15 -21 -15 -16 0 -63 -44 -63 -59 0 -6 11
-20 24 -33 32 -31 40 -62 21 -78 -24 -20 -8 -30 49 -30 46 0 56 4 84 33 18 18
32 42 32 54 0 22 -94 143 -111 143 -5 0 -12 -7 -15 -15z m44 -89 c5 -25 -12
-39 -37 -31 -20 6 -28 34 -14 49 13 13 48 1 51 -18z"/>
<path d="M2390 5590 c0 -5 10 -10 23 -10 18 0 19 2 7 10 -19 13 -30 13 -30 0z"/>
<path d="M6357 5563 c-13 -12 -7 -23 12 -23 26 0 35 16 15 24 -19 7 -19 7 -27
-1z"/>
<path d="M6389 5378 c-66 -79 -66 -81 -36 -127 20 -30 36 -42 61 -47 52 -9 61
-3 61 44 0 41 -1 42 -33 40 -18 -1 -39 4 -47 13 -14 14 -14 17 4 33 25 23 67
15 76 -15 9 -27 39 -21 43 9 4 28 -23 62 -50 62 -10 0 -21 7 -24 15 -9 23 -17
19 -55 -27z"/>
<path d="M2236 5296 c3 -9 11 -16 16 -16 13 0 5 23 -10 28 -7 2 -10 -2 -6 -12z"/>
<path d="M2331 5229 c-16 -18 -38 -87 -29 -93 2 -1 29 -15 60 -30 39 -18 64
-25 83 -20 32 8 65 68 58 106 -6 32 -38 64 -48 49 -8 -14 -62 -14 -70 -1 -10
16 -33 12 -54 -11z m79 -44 c12 -15 7 -45 -8 -45 -20 0 -43 26 -36 43 8 21 27
22 44 2z"/>
<path d="M6583 5011 c-17 -28 -16 -47 3 -76 14 -21 24 -25 64 -25 45 0 79 18
63 33 -3 4 1 15 10 25 15 17 15 19 -1 33 -10 9 -34 16 -53 16 -19 0 -43 3 -54
7 -14 5 -24 1 -32 -13z"/>
<path d="M6834 4622 c9 -15 48 -23 43 -9 -2 7 -14 14 -26 15 -13 2 -21 -1 -17
-6z"/>
<path d="M2120 4540 c0 -5 7 -10 15 -10 8 0 15 5 15 10 0 6 -7 10 -15 10 -8 0
-15 -4 -15 -10z"/>
<path d="M6750 4390 c-24 -8 -23 -8 8 -9 17 -1 32 4 32 9 0 11 -5 11 -40 0z"/>
<path d="M6622 4038 c2 -6 10 -14 16 -16 7 -2 10 2 6 12 -7 18 -28 22 -22 4z"/>
<path d="M6586 3874 c-35 -34 -7 -114 30 -83 8 7 29 13 46 13 40 1 56 25 40
60 -10 22 -18 26 -56 26 -27 0 -51 -6 -60 -16z"/>
<path d="M2245 3791 c-3 -5 -1 -12 4 -15 13 -8 42 4 35 15 -7 12 -31 12 -39 0z"/>
<path d="M2225 3634 c-9 -9 -14 -18 -12 -20 7 -8 57 15 57 26 0 15 -27 12 -45
-6z"/>
<path d="M2630 3256 c0 -8 5 -18 10 -21 6 -3 10 3 10 14 0 12 -4 21 -10 21 -5
0 -10 -6 -10 -14z"/>
<path d="M2351 3234 c-18 -18 -21 -28 -13 -36 8 -8 13 -6 18 8 4 10 12 22 17
25 5 4 8 12 6 17 -2 6 -15 0 -28 -14z"/>
<path d="M2394 3165 c-7 -17 4 -37 17 -30 12 8 12 45 -1 45 -6 0 -13 -7 -16
-15z"/>
<path d="M6134 3121 c-39 -24 -74 -68 -74 -93 0 -11 14 -39 30 -64 26 -37 36
-44 65 -44 19 0 37 5 40 10 3 6 17 10 31 10 21 0 24 4 19 20 -5 16 -2 20 14
20 27 0 27 12 0 36 -17 15 -20 26 -14 61 5 35 3 43 -14 52 -29 16 -62 13 -97
-8z"/>
<path d="M6349 2946 c16 -19 44 -21 39 -3 -3 6 -15 14 -28 15 -21 3 -22 2 -11
-12z"/>
<path d="M6262 2919 c2 -7 10 -15 17 -17 8 -3 12 1 9 9 -2 7 -10 15 -17 17 -8
3 -12 -1 -9 -9z"/>
<path d="M6297 2894 c-9 -9 9 -40 28 -48 20 -7 19 4 -3 32 -10 13 -21 20 -25
16z"/>
<path d="M3100 2867 c-45 -14 -44 -11 -25 -41 23 -34 11 -82 -28 -119 -30 -28
-30 -29 -12 -39 11 -6 31 -24 45 -40 24 -27 28 -29 53 -17 21 10 30 10 39 1
20 -20 35 -14 59 26 63 102 64 131 5 195 -48 50 -67 55 -136 34z"/>
<path d="M2917 2844 c-14 -14 -7 -25 13 -22 12 2 21 8 21 13 0 12 -24 18 -34
9z"/>
<path d="M6232 2829 c2 -7 10 -15 17 -17 8 -3 12 1 9 9 -2 7 -10 15 -17 17 -8
3 -12 -1 -9 -9z"/>
<path d="M5500 2619 c-47 -29 -50 -35 -50 -99 0 -61 10 -84 38 -86 10 -1 35
-4 56 -8 31 -6 42 -3 61 14 18 17 22 29 18 64 -3 24 0 53 7 66 28 52 -67 88
-130 49z m70 -53 c6 -8 10 -25 8 -38 -2 -18 -9 -23 -33 -23 -24 0 -31 5 -33
24 -3 15 3 30 14 38 23 17 29 16 44 -1z"/>
<path d="M3381 2543 c-44 -45 -69 -79 -62 -81 7 -2 17 0 23 6 16 16 38 3 38
-23 0 -17 9 -26 31 -34 44 -15 48 -14 59 14 8 22 16 25 55 25 39 0 45 3 51 24
14 56 -47 146 -99 146 -14 0 -48 -28 -96 -77z m89 -36 c0 -43 -9 -51 -32 -30
-30 27 -23 63 14 63 14 0 18 -8 18 -33z"/>
<path d="M2898 2569 c-10 -10 -18 -21 -18 -24 0 -11 38 15 44 30 7 20 -5 18
-26 -6z"/>
<path d="M3147 2516 c-4 -10 -5 -21 -2 -24 9 -9 17 6 13 25 -3 17 -4 17 -11
-1z"/>
<path d="M3270 2434 c0 -9 5 -14 12 -12 18 6 21 28 4 28 -9 0 -16 -7 -16 -16z"/>
<path d="M3842 2443 c-18 -7 -58 -73 -66 -109 -10 -44 29 -105 61 -97 15 3 25
0 29 -11 5 -12 10 -13 24 -6 15 8 22 5 34 -12 16 -22 16 -21 16 18 0 46 28 80
70 86 37 5 33 22 -20 90 -8 10 -35 23 -60 29 -25 5 -52 11 -60 13 -8 3 -21 2
-28 -1z"/>
<path d="M5650 2436 c0 -2 7 -9 15 -16 12 -10 15 -10 15 4 0 9 -7 16 -15 16
-8 0 -15 -2 -15 -4z"/>
<path d="M5696 2386 c3 -9 11 -16 16 -16 13 0 5 23 -10 28 -7 2 -10 -2 -6 -12z"/>
<path d="M3295 2350 c-8 -13 4 -32 16 -25 12 8 12 35 0 35 -6 0 -13 -4 -16
-10z"/>
<path d="M5156 2340 c-32 -21 -55 -55 -56 -83 0 -12 10 -20 30 -24 17 -3 39
-16 49 -29 10 -13 23 -24 27 -24 17 0 84 71 84 88 0 10 -14 34 -31 55 -34 42
-58 46 -103 17z"/>
<path d="M3353 2333 c-4 -10 -14 -23 -22 -30 -13 -9 -13 -14 -4 -24 10 -10 14
-7 22 13 5 15 15 29 20 33 14 8 14 25 1 25 -6 0 -14 -8 -17 -17z"/>
<path d="M4723 2337 c-45 -17 -52 -26 -59 -80 -6 -44 -4 -50 23 -77 22 -22 37
-28 59 -25 16 2 32 4 37 4 4 1 7 18 7 39 0 28 7 45 25 62 31 29 31 35 -1 65
-30 27 -43 29 -91 12z"/>
<path d="M4291 2287 c-25 -12 -61 -84 -61 -123 0 -17 6 -24 18 -24 11 0 24
-11 30 -25 10 -21 17 -24 39 -19 50 10 53 13 53 43 0 20 9 37 30 54 38 32 38
49 -1 81 -32 28 -69 32 -108 13z"/>
<path d="M4062 2258 c5 -15 28 -23 28 -10 0 5 -7 13 -16 16 -10 4 -14 1 -12
-6z"/>
<path d="M3840 2069 c0 -11 5 -17 10 -14 6 3 10 13 10 21 0 8 -4 14 -10 14 -5
0 -10 -9 -10 -21z"/>
<path d="M2480 6691 c0 -29 40 -111 54 -111 15 0 56 42 56 57 0 10 -89 73
-103 73 -4 0 -7 -8 -7 -19z"/>
<path d="M6715 6445 c-49 -50 -52 -57 -30 -77 39 -36 43 -37 75 -28 62 18 93
96 52 133 -29 26 -48 21 -97 -28z"/>
<path d="M2132 6457 c-12 -13 -22 -29 -22 -36 0 -15 90 -100 107 -101 19 0 54
70 47 94 -19 64 -91 87 -132 43z"/>
<path d="M1910 6173 c-30 -11 -60 -47 -60 -73 0 -69 122 -170 215 -178 47 -4
54 -2 73 23 26 32 27 55 8 94 -37 71 -181 153 -236 134z"/>
<path d="M6918 6163 c-85 -48 -118 -76 -138 -118 -26 -53 -15 -90 31 -109 57
-24 158 19 223 96 88 103 3 198 -116 131z"/>
<path d="M5043 1703 c-17 -6 -16 -62 1 -115 7 -24 21 -79 31 -123 9 -44 23
-104 32 -134 l14 -53 36 5 c81 14 133 78 133 167 0 109 -46 212 -110 245 -27
14 -111 19 -137 8z"/>
<path d="M2201 7754 c-22 -28 -28 -54 -12 -54 5 0 11 7 15 15 8 23 44 18 68
-10 53 -62 74 -180 39 -222 -24 -29 -76 -31 -90 -5 -16 29 -41 105 -41 124 0
9 -9 33 -21 52 -23 39 -57 48 -79 21 -11 -13 -8 -19 14 -40 14 -13 26 -30 26
-38 0 -8 7 -28 15 -43 8 -16 15 -36 15 -44 0 -9 4 -20 9 -25 5 -6 18 -39 29
-75 12 -36 30 -87 41 -112 16 -39 23 -46 41 -41 29 8 46 41 25 49 -23 9 -55
77 -48 103 3 11 13 21 23 21 9 0 34 16 55 35 32 31 38 43 42 93 7 79 -11 138
-57 184 -46 46 -80 49 -109 12z"/>
<path d="M6716 7765 c-22 -8 -51 -22 -65 -33 -36 -26 -91 -110 -91 -138 0 -31
59 -89 100 -98 78 -15 105 -8 161 41 66 58 67 60 75 100 8 43 -2 82 -24 90 -9
4 -23 13 -30 20 -7 7 -22 13 -32 13 -10 0 -22 5 -25 10 -8 13 -22 12 -69 -5z
m99 -29 c48 -20 55 -55 22 -105 -57 -86 -164 -142 -201 -106 -41 41 -27 93 41
156 32 29 86 67 101 69 1 0 18 -6 37 -14z"/>
<path d="M1968 7609 c-22 -12 -22 -27 -2 -68 17 -34 12 -81 -8 -81 -7 0 -29
12 -49 26 -41 28 -82 29 -87 2 -2 -11 13 -24 52 -41 72 -33 81 -52 67 -147 -5
-41 -8 -77 -5 -82 8 -12 28 -10 49 6 18 13 18 15 3 38 -18 27 -26 87 -15 105
9 15 32 7 74 -25 35 -26 76 -27 81 -1 2 11 -15 25 -52 44 -87 44 -91 52 -77
137 9 57 9 74 -1 84 -9 9 -18 10 -30 3z"/>
<path d="M6968 7548 c-51 -36 -98 -100 -98 -134 0 -19 16 -40 67 -85 65 -58
213 -7 263 91 25 50 25 71 -1 104 -29 37 -39 32 -33 -16 5 -39 2 -47 -30 -85
-87 -100 -214 -115 -216 -25 0 56 117 152 186 152 24 0 34 4 32 13 -3 7 -28
13 -64 15 -53 2 -64 -1 -106 -30z"/>
<path d="M1555 7475 c-33 -30 -75 -69 -93 -87 l-32 -31 29 -26 c24 -22 91
-121 91 -135 0 -3 20 -38 45 -80 24 -42 48 -88 51 -102 10 -39 33 -42 63 -8
15 16 55 53 89 82 34 30 62 61 62 68 0 26 -30 74 -47 74 -13 0 -14 -7 -9 -39
5 -32 1 -45 -22 -77 -53 -73 -80 -80 -107 -28 -5 11 -22 40 -37 66 -33 56 -34
58 -8 86 15 16 33 22 60 22 22 0 40 2 40 5 0 18 -43 85 -54 85 -8 0 -17 -15
-20 -34 -7 -38 -37 -69 -61 -64 -16 3 -53 55 -75 107 -14 32 -6 51 36 85 31
25 41 27 81 21 43 -6 45 -6 38 17 -20 64 -45 63 -120 -7z"/>
<path d="M7428 7485 c-6 -14 -83 -80 -170 -147 -94 -73 -158 -128 -156 -136 2
-8 13 -21 25 -29 20 -14 23 -13 36 14 9 15 25 35 37 43 13 8 57 42 99 75 42
33 102 80 134 104 60 45 69 65 40 87 -25 19 -32 17 -45 -11z"/>
<path d="M7412 7250 c-29 -27 -35 -57 -23 -109 16 -71 -5 -101 -70 -101 -42 0
-36 -17 11 -30 48 -13 88 3 110 44 11 22 12 35 1 77 -12 47 -12 53 7 78 35 45
92 24 92 -35 0 -38 14 -51 35 -34 23 19 18 43 -17 75 -66 59 -109 69 -146 35z"/>
<path d="M7243 7137 c-13 -5 -23 -18 -23 -27 0 -16 39 -60 53 -60 6 0 3 87 -4
94 -2 2 -14 -1 -26 -7z"/>
<path d="M1433 6866 c-4 -8 -29 -41 -55 -73 -153 -187 -301 -423 -424 -673
-37 -74 -71 -142 -75 -150 -5 -8 -12 -22 -15 -30 -3 -8 -19 -49 -36 -90 -65
-162 -82 -212 -132 -380 -9 -30 -23 -77 -31 -103 -8 -26 -15 -57 -15 -69 0
-11 -7 -41 -15 -67 -13 -43 -22 -93 -59 -331 -44 -282 -42 -815 4 -1080 6 -36
18 -105 26 -155 21 -131 58 -285 89 -380 7 -22 17 -56 21 -75 3 -19 10 -41 15
-50 9 -15 53 -140 70 -197 5 -18 14 -35 19 -38 6 -4 10 -13 10 -21 0 -13 30
-83 91 -209 16 -33 29 -65 29 -71 0 -12 32 -44 43 -44 14 0 6 32 -18 70 -14
22 -25 44 -25 49 0 5 -6 22 -14 38 -24 46 -72 155 -90 203 -10 25 -24 58 -32
73 -8 16 -14 38 -14 49 0 11 -6 32 -14 46 -26 51 -46 103 -46 120 0 9 -6 37
-14 62 -46 146 -90 343 -106 475 -5 39 -13 93 -19 120 -6 28 -15 146 -21 263
-12 241 2 631 26 745 8 38 14 80 14 95 0 15 7 59 15 97 9 39 23 104 31 145 9
41 25 107 36 145 11 39 26 95 33 125 8 30 23 80 35 110 12 30 24 64 27 75 2
11 9 29 14 40 4 11 18 45 29 75 39 100 180 397 220 460 5 8 26 44 46 80 58
102 140 224 251 373 57 76 103 142 103 147 0 16 -19 21 -27 6z"/>
<path d="M7524 6806 c-4 -11 1 -24 14 -37 12 -10 40 -47 63 -82 24 -34 62 -88
86 -119 24 -31 43 -61 43 -67 0 -5 6 -16 13 -23 13 -14 64 -90 83 -123 69
-124 114 -210 114 -221 0 -7 4 -15 9 -18 12 -8 71 -134 120 -256 13 -30 29
-68 36 -85 8 -16 17 -42 21 -58 3 -15 10 -30 15 -33 5 -3 9 -15 9 -27 0 -12 6
-33 13 -47 7 -14 21 -54 31 -90 10 -36 24 -83 32 -105 14 -41 29 -106 43 -185
5 -25 13 -65 19 -90 20 -80 33 -153 42 -245 5 -49 13 -119 19 -155 6 -36 11
-200 11 -365 0 -302 -10 -449 -46 -620 -8 -38 -14 -82 -14 -97 0 -15 -5 -39
-10 -54 -6 -15 -15 -52 -20 -83 -9 -58 -27 -132 -40 -166 -5 -11 -13 -38 -18
-60 -23 -88 -52 -179 -79 -242 -7 -17 -13 -37 -13 -45 0 -8 -4 -18 -8 -23 -4
-6 -18 -37 -31 -70 -31 -81 -124 -276 -194 -409 -16 -29 -14 -46 3 -46 5 0 15
11 22 25 29 57 121 242 134 270 7 17 27 60 43 98 17 37 31 71 31 77 0 5 6 24
14 42 8 18 21 49 30 70 9 20 16 43 16 51 0 8 7 28 15 43 8 16 15 38 15 49 0
12 4 25 10 31 5 5 14 30 19 54 5 25 20 86 34 135 23 83 33 131 67 300 6 33 15
98 20 145 5 47 14 118 20 158 15 94 8 703 -9 822 -28 189 -42 277 -53 320 -6
25 -14 66 -19 93 -4 26 -12 62 -18 80 -5 17 -16 57 -24 87 -20 72 -75 245 -92
290 -37 100 -58 152 -89 223 -8 17 -25 55 -36 82 -42 96 -111 235 -121 240 -5
4 -9 12 -9 20 0 7 -15 36 -32 64 -18 27 -51 80 -73 116 -22 36 -54 85 -71 108
-17 23 -33 47 -35 53 -7 19 -93 134 -131 176 -31 35 -38 39 -44 24z"/>
<path d="M7616 2318 c-17 -24 -21 -58 -8 -58 4 0 16 6 27 14 30 20 54 6 126
-73 35 -39 69 -71 76 -71 7 0 18 10 24 22 10 19 9 24 -12 37 -13 9 -55 46 -93
84 -76 74 -112 86 -140 45z"/>
<path d="M1325 2280 c-16 -4 -93 -8 -171 -9 -77 0 -143 -4 -147 -7 -10 -10 15
-53 35 -60 13 -4 28 2 42 15 14 13 36 21 57 21 30 0 40 -7 72 -50 20 -27 37
-54 37 -59 0 -14 -61 -58 -85 -63 -27 -5 -30 -30 -6 -59 l21 -24 17 21 c10 12
82 69 161 128 173 129 180 148 57 152 -33 1 -73 -2 -90 -6z m59 -26 c27 -10
18 -27 -35 -66 -49 -37 -99 -50 -99 -26 0 6 -8 20 -17 30 -28 31 -6 52 63 59
32 3 62 6 66 7 3 1 13 -1 22 -4z"/>
<path d="M7537 2203 c-13 -13 -7 -43 9 -43 9 0 56 -38 103 -85 48 -47 93 -85
99 -85 29 0 10 48 -38 94 -28 27 -58 62 -66 77 -8 16 -21 29 -29 29 -8 0 -15
5 -15 10 0 11 -53 14 -63 3z"/>
<path d="M7445 2050 c-11 -4 -33 -22 -49 -39 -25 -26 -29 -38 -30 -88 0 -67
15 -101 70 -155 32 -33 44 -38 82 -38 35 0 45 4 49 20 3 11 9 20 13 20 4 0 17
15 28 34 40 67 -8 185 -93 233 -45 25 -42 25 -70 13z m38 -52 c50 -26 107
-113 107 -163 0 -93 -87 -84 -161 18 -23 32 -29 50 -29 93 0 32 5 54 13 57 21
9 48 7 70 -5z"/>
<path d="M1473 2025 c-3 -9 -51 -38 -107 -66 -116 -57 -125 -64 -108 -81 9 -9
19 -10 40 -1 184 76 216 92 224 113 5 14 4 28 -3 36 -15 19 -38 18 -46 -1z"/>
<path d="M1550 1935 c0 -3 5 -14 12 -24 17 -28 1 -42 -102 -92 -91 -44 -109
-61 -89 -85 15 -19 45 -18 53 2 3 8 39 31 80 50 104 48 140 99 98 137 -17 16
-52 23 -52 12z"/>
<path d="M7181 1917 c-15 -19 -3 -47 21 -47 15 0 19 6 16 27 -4 31 -20 40 -37
20z"/>
<path d="M7251 1817 c-18 -18 -13 -36 23 -73 19 -19 55 -67 81 -105 48 -71 67
-81 89 -47 9 15 5 23 -22 47 -17 17 -32 34 -32 38 0 4 -16 26 -36 48 -19 22
-42 52 -52 67 -19 33 -35 41 -51 25z"/>
<path d="M1621 1742 c-57 -22 -131 -93 -131 -126 0 -25 41 -66 66 -66 16 0 19
16 4 25 -5 3 -10 18 -10 33 0 32 59 78 134 104 44 16 52 16 66 3 9 -8 22 -15
28 -15 18 0 14 20 -5 27 -10 4 -24 13 -31 20 -18 17 -67 15 -121 -5z"/>
<path d="M1910 1704 c-31 -31 -40 -35 -72 -31 -27 4 -38 1 -38 -8 0 -27 -64
-74 -136 -100 -72 -26 -85 -37 -64 -50 6 -4 8 -15 5 -26 -9 -28 22 -37 40 -12
8 12 84 62 168 112 163 96 183 112 173 136 -9 25 -39 17 -76 -21z"/>
<path d="M7067 1722 c-3 -4 -3 -29 0 -55 4 -36 12 -52 29 -64 13 -8 39 -41 58
-72 65 -105 98 -128 143 -96 23 16 48 78 38 95 -9 15 -27 1 -21 -16 6 -15 -19
-44 -38 -44 -19 0 -57 41 -93 102 -46 77 -47 82 -19 109 29 27 34 49 11 49 -8
0 -15 -4 -15 -10 0 -5 -10 -15 -22 -21 -19 -10 -24 -9 -36 10 -15 22 -27 27
-35 13z"/>
<path d="M2102 1527 c-31 -33 -27 -41 14 -34 57 9 94 -2 94 -27 0 -17 -31 -47
-117 -115 -64 -52 -132 -103 -150 -115 -37 -24 -40 -33 -15 -52 24 -19 51 -17
60 4 4 11 67 67 139 125 118 94 136 105 157 97 31 -11 40 -40 25 -74 -16 -35
-5 -44 29 -24 45 27 51 46 22 69 -90 72 -134 108 -167 136 -45 39 -62 41 -91
10z"/>
<path d="M6950 1525 l-24 -26 21 -5 c42 -11 94 -109 96 -182 2 -52 1 -55 -27
-65 -36 -12 -71 12 -103 73 -23 43 -33 140 -14 140 5 0 11 7 15 15 9 25 -22
17 -39 -9 -41 -63 -26 -160 37 -231 65 -73 126 -59 144 33 8 40 20 48 43 28
13 -12 20 -13 29 -4 17 17 15 35 -5 46 -9 5 -40 54 -69 108 -29 55 -59 100
-66 102 -8 1 -25 -9 -38 -23z"/>
<path d="M6730 1353 c-46 -32 -80 -93 -80 -144 0 -81 51 -171 104 -185 49 -12
131 60 124 108 -3 20 -6 18 -28 -15 -46 -68 -97 -62 -134 16 -38 81 -42 120
-16 157 17 24 26 29 46 24 37 -9 57 2 45 25 -15 27 -35 32 -61 14z"/>
<path d="M2430 1313 c0 -9 -64 -78 -142 -153 -132 -128 -154 -160 -112 -160 8
0 43 26 79 58 35 31 77 67 94 80 17 13 34 34 37 46 3 12 29 42 59 65 47 38 52
45 42 62 -15 24 -57 26 -57 2z"/>
<path d="M6503 1164 c-3 -9 6 -53 21 -98 21 -64 25 -92 20 -130 -5 -36 -4 -47
4 -42 7 4 12 16 12 27 0 25 20 25 27 -1 6 -23 21 -25 47 -5 19 14 19 15 -2 32
-19 17 -54 100 -72 171 -14 55 -44 79 -57 46z"/>
<path d="M2405 1151 c-3 -5 5 -11 17 -13 16 -2 24 -11 26 -29 2 -20 -11 -39
-65 -92 -37 -37 -71 -67 -75 -67 -18 0 -7 -49 12 -55 23 -7 40 1 40 19 0 7 31
44 69 82 81 81 96 117 60 145 -25 20 -74 25 -84 10z"/>
<path d="M6141 1133 c-7 -14 -5 -23 8 -38 26 -29 35 -99 15 -116 -14 -11 -13
-14 6 -29 26 -20 47 -74 56 -145 7 -50 35 -95 61 -95 22 0 26 27 9 57 -15 28
-67 225 -72 273 -1 14 -9 43 -17 65 -17 45 -49 58 -66 28z"/>
<path d="M6336 1075 c-3 -8 6 -31 19 -51 14 -20 25 -43 25 -51 0 -9 13 -43 30
-78 22 -46 37 -64 55 -69 33 -8 65 9 65 35 0 16 -5 18 -26 13 -33 -8 -47 11
-75 101 -34 111 -36 115 -63 115 -13 0 -26 -7 -30 -15z"/>
<path d="M2595 1000 c-23 -11 -58 -42 -78 -69 -64 -84 -45 -146 55 -172 38
-10 49 -10 62 0 9 8 16 18 16 23 0 6 -7 5 -15 -2 -12 -10 -23 -8 -60 9 -37 18
-45 26 -45 49 0 31 25 72 43 72 7 0 18 13 25 29 8 17 25 34 42 40 32 11 41 41
13 41 -10 0 -36 -9 -58 -20z"/>
<path d="M2728 988 c23 -23 14 -62 -19 -82 -28 -17 -32 -17 -65 -1 -36 17 -51
15 -39 -4 3 -6 17 -11 31 -11 13 0 24 -4 24 -9 0 -5 11 -12 25 -15 45 -11 105
33 105 78 0 21 -36 56 -57 56 -13 0 -14 -3 -5 -12z"/>
<path d="M5865 984 c-58 -21 -66 -34 -22 -34 24 0 43 -7 54 -19 21 -25 33 -18
33 18 0 42 -18 51 -65 35z"/>
<path d="M6099 947 c-56 -38 -73 -116 -43 -204 30 -92 99 -122 142 -63 27 36
28 49 2 25 -17 -15 -24 -16 -49 -6 -22 10 -34 26 -50 70 -29 79 -27 110 9 159
17 23 29 42 27 42 -2 0 -19 -10 -38 -23z"/>
<path d="M5725 930 c-44 -21 -44 -22 -27 -64 14 -32 41 -198 49 -298 5 -67 6
-68 34 -68 34 0 48 23 31 51 -7 10 -12 28 -12 40 0 12 -5 39 -12 61 -9 31 -9
44 1 60 9 14 9 23 1 33 -12 14 -40 116 -40 146 0 11 11 24 25 31 13 6 22 15
19 19 -7 13 -23 10 -69 -11z"/>
<path d="M3124 920 c-85 -20 -198 -157 -204 -247 -4 -53 0 -64 35 -99 30 -30
35 -41 35 -83 0 -56 20 -81 67 -81 43 0 47 11 12 32 -25 15 -30 24 -27 50 3
34 12 40 77 58 56 15 149 105 180 174 45 103 20 167 -77 193 -53 14 -55 14
-98 3z m130 -42 c45 -64 -26 -211 -140 -287 -51 -35 -63 -37 -105 -16 -61 32
-57 91 12 195 56 83 119 130 175 130 33 0 46 -5 58 -22z"/>
<path d="M5505 880 c-10 -17 20 -44 40 -36 9 3 15 14 13 23 -4 21 -43 30 -53
13z"/>
<path d="M5432 826 c-27 -35 -49 -143 -34 -167 7 -11 12 -81 13 -185 2 -161 1
-169 -20 -182 -23 -16 -28 -42 -8 -42 7 0 26 14 43 31 l29 31 0 180 c0 178 0
181 23 191 29 13 28 25 -4 37 -23 9 -26 14 -22 53 3 23 8 50 12 60 12 26 -9
21 -32 -7z"/>
<path d="M5856 785 l-27 -35 27 -10 c42 -16 57 -6 49 32 -11 50 -19 52 -49 13z"/>
<path d="M3387 733 c-4 -3 -7 -14 -7 -24 0 -10 -20 -56 -45 -102 -64 -119 -60
-159 16 -161 25 -1 44 4 46 12 3 7 -5 12 -20 12 -31 0 -42 33 -23 70 44 86 69
131 77 136 16 10 10 43 -10 54 -23 12 -26 12 -34 3z"/>
<path d="M4107 677 c-3 -29 -12 -68 -20 -87 -39 -92 -87 -239 -87 -269 0 -18
5 -22 27 -19 25 3 29 8 35 53 4 27 13 65 21 85 19 47 37 98 47 135 5 17 16 51
26 77 19 56 14 78 -19 78 -22 0 -25 -5 -30 -53z"/>
<path d="M4277 683 c-11 -10 -8 -41 4 -49 16 -9 43 21 36 40 -7 16 -28 21 -40
9z"/>
<path d="M3534 628 c-16 -29 -31 -57 -33 -63 -2 -5 -17 -27 -33 -47 -38 -48
-37 -103 1 -103 19 0 26 7 33 30 4 17 28 69 53 117 49 94 55 118 27 118 -12 0
-29 -19 -48 -52z"/>
<path d="M5946 628 c-22 -49 -38 -65 -74 -72 -17 -4 -32 -12 -32 -17 0 -15 46
-10 60 6 7 8 25 15 41 15 33 0 52 27 47 67 -4 39 -25 39 -42 1z"/>
<path d="M4455 642 c-20 -14 -50 -86 -51 -121 0 -20 -8 -63 -17 -96 -10 -32
-17 -74 -17 -92 0 -28 5 -36 34 -50 32 -15 37 -15 70 1 44 21 48 40 6 31 -65
-14 -73 35 -28 172 19 59 22 62 48 57 36 -8 49 13 17 25 -25 10 -37 29 -37 62
0 20 -8 24 -25 11z"/>
<path d="M5170 630 c0 -5 8 -10 18 -10 27 0 59 -40 67 -81 9 -50 -11 -138 -39
-173 -30 -36 -63 -31 -90 15 -26 44 -17 154 15 198 12 17 20 34 16 37 -12 12
-36 -5 -67 -47 -26 -36 -30 -51 -30 -106 0 -104 38 -150 112 -136 91 16 132
74 132 182 0 70 -1 74 -32 102 -23 20 -43 29 -67 29 -19 0 -35 -4 -35 -10z"/>
<path d="M3728 599 c-14 -11 -37 -39 -51 -62 -61 -104 -35 -217 43 -192 27 9
25 19 -6 34 -24 11 -26 16 -21 52 8 58 48 131 85 154 17 11 31 23 32 28 0 15
-56 6 -82 -14z"/>
<path d="M3872 578 c6 -37 -20 -105 -58 -155 -21 -27 -23 -38 -16 -65 6 -26
14 -33 32 -33 21 0 26 6 31 40 4 22 24 75 43 118 20 43 36 84 36 92 0 10 -47
35 -68 35 -2 0 -2 -15 0 -32z"/>
<path d="M4795 578 c-2 -7 -6 -31 -8 -53 -5 -44 -26 -103 -44 -122 -6 -7 -13
-18 -15 -25 -2 -6 -11 -9 -19 -6 -11 4 -20 34 -29 93 -13 85 -28 115 -55 115
-19 0 -24 -20 -13 -50 9 -23 30 -125 44 -211 11 -66 -46 -136 -106 -131 -18 1
-30 -4 -34 -14 -9 -23 1 -34 32 -34 32 0 91 51 138 120 43 62 134 219 134 229
0 5 8 22 17 39 9 16 14 36 10 45 -7 20 -46 23 -52 5z"/>
<path d="M4232 558 c-6 -6 -12 -26 -12 -43 0 -32 -33 -152 -53 -193 -9 -18 -7
-26 6 -40 23 -23 52 -5 53 34 1 16 13 69 28 117 15 49 26 98 24 110 -3 25 -28
33 -46 15z"/>
</g>
</svg>
