<?xml version="1.0" standalone="no"?>
<!DOCTYPE svg PUBLIC "-//W3C//DTD SVG 20010904//EN"
 "http://www.w3.org/TR/2001/REC-SVG-20010904/DTD/svg10.dtd">
<svg version="1.0" xmlns="http://www.w3.org/2000/svg"
 width="690.000000pt" height="690.000000pt" viewBox="0 0 690.000000 690.000000"
 preserveAspectRatio="xMidYMid meet">
<metadata>
Created by potrace 1.10, written by Peter Selinger 2001-2011
</metadata>
<g transform="translate(0.000000,690.000000) scale(0.100000,-0.100000)"
fill="#00c2bd" stroke="none">
<path d="M3345 6885 c-8 -11 -50 -17 -176 -24 -91 -6 -186 -15 -210 -20 -24
-6 -75 -15 -114 -20 -38 -6 -99 -18 -135 -26 -36 -9 -83 -20 -105 -24 -22 -4
-56 -12 -75 -18 -19 -6 -69 -21 -110 -34 -41 -12 -79 -25 -85 -29 -5 -4 -21
-10 -35 -13 -29 -6 -101 -32 -150 -53 -19 -8 -44 -19 -55 -24 -100 -41 -333
-157 -356 -176 -8 -8 -18 -14 -21 -14 -29 0 -408 -269 -523 -371 -170 -151
-210 -191 -376 -375 -65 -72 -289 -373 -289 -389 0 -1 -34 -60 -75 -129 -41
-69 -75 -128 -75 -131 0 -3 -21 -49 -46 -103 -25 -53 -53 -113 -61 -132 -9
-19 -22 -47 -30 -62 -7 -14 -13 -33 -13 -42 0 -9 -4 -24 -10 -34 -11 -18 -36
-89 -50 -137 -4 -16 -13 -43 -18 -60 -18 -52 -56 -196 -87 -326 -8 -36 -15
-83 -15 -105 0 -21 -5 -55 -11 -74 -42 -136 -44 -825 -3 -991 8 -31 14 -73 14
-94 0 -34 14 -103 45 -220 17 -66 34 -132 45 -175 11 -45 37 -120 50 -142 6
-10 10 -24 10 -33 0 -8 6 -29 14 -47 8 -18 22 -53 31 -78 33 -87 159 -348 195
-405 11 -16 23 -37 26 -45 9 -19 77 -133 84 -140 3 -3 10 -12 15 -21 37 -61
99 -149 105 -149 4 0 12 -10 18 -23 22 -46 225 -282 337 -390 78 -76 314 -273
412 -343 137 -99 339 -217 528 -308 88 -43 169 -83 180 -89 11 -5 33 -14 50
-18 31 -7 84 -25 120 -40 50 -21 114 -41 153 -50 24 -5 48 -12 55 -16 6 -4 29
-10 52 -14 45 -7 117 -25 189 -45 26 -8 65 -14 85 -14 20 0 68 -6 106 -14 219
-46 703 -48 950 -4 33 5 89 14 125 18 69 8 137 23 210 46 25 8 54 14 65 14 18
0 61 12 150 42 17 5 44 13 60 18 17 5 55 18 85 30 30 12 66 24 80 27 22 4 430
203 485 236 34 21 100 61 120 75 11 6 27 15 35 19 14 6 128 88 157 113 7 6 34
25 60 42 27 18 59 42 73 55 43 38 74 66 141 123 143 123 305 300 450 492 66
87 119 160 119 162 0 4 135 236 161 276 5 8 12 22 15 30 3 8 26 56 49 105 76
157 105 225 105 243 0 10 4 22 9 28 5 5 14 25 19 44 13 44 31 95 49 137 7 17
13 37 13 44 0 7 6 35 14 63 8 28 21 76 29 106 8 30 20 78 27 105 7 28 17 79
21 115 4 36 12 94 18 130 6 36 14 101 18 145 6 56 12 79 21 78 19 -4 17 476
-2 491 -10 7 -18 50 -25 133 -6 67 -16 134 -21 148 -6 14 -10 47 -10 73 0 26
-6 67 -14 92 -18 58 -36 133 -47 192 -4 26 -12 56 -18 67 -6 11 -11 30 -11 43
0 13 -6 32 -14 43 -7 11 -16 31 -19 45 -7 34 -35 111 -47 132 -6 10 -10 25
-10 34 0 9 -6 28 -13 42 -8 15 -21 43 -29 62 -17 38 -70 153 -97 210 -15 32
-88 164 -111 200 -5 8 -28 47 -52 85 -23 39 -49 77 -57 85 -7 8 -27 36 -43 62
-16 26 -33 48 -36 48 -4 0 -18 17 -32 38 -73 111 -289 344 -440 476 -58 50
-109 96 -115 102 -5 7 -57 46 -115 88 -58 42 -114 84 -125 92 -11 9 -57 39
-103 67 -45 29 -95 60 -110 69 -55 35 -381 193 -462 223 -25 9 -60 23 -78 31
-18 8 -41 14 -50 14 -10 0 -22 4 -27 9 -6 4 -44 18 -85 30 -41 13 -91 28 -110
34 -19 6 -53 14 -75 18 -50 10 -157 35 -210 48 -22 6 -59 11 -82 11 -23 0 -54
5 -69 11 -16 5 -107 15 -204 20 -131 8 -178 14 -186 25 -16 20 -175 20 -189
-1z m122 -281 c2 -7 -16 -36 -40 -66 -77 -94 -82 -105 -66 -136 8 -14 40 -58
72 -96 32 -38 56 -77 55 -85 -4 -20 -63 -27 -84 -10 -8 6 -14 19 -14 28 0 21
-85 137 -106 145 -8 3 -17 -1 -21 -10 -6 -16 2 -115 13 -151 5 -19 1 -23 -30
-28 -39 -8 -71 8 -59 28 10 16 4 294 -7 323 -12 32 -3 53 26 60 41 10 52 -9
47 -84 -5 -83 5 -102 39 -76 38 28 79 90 85 128 4 25 11 36 27 39 33 7 59 3
63 -9z m-486 -70 c57 -29 69 -113 26 -174 -15 -22 -13 -26 49 -98 58 -66 64
-76 51 -90 -25 -24 -61 -7 -106 53 -52 69 -85 92 -106 75 -19 -16 -19 -56 0
-110 18 -52 8 -70 -40 -70 l-32 0 -6 79 c-3 43 -18 130 -32 192 -20 91 -23
115 -13 125 7 7 46 15 86 17 40 2 75 7 79 11 9 8 10 8 44 -10z m1188 -9 c16
-8 48 -17 72 -21 24 -4 56 -16 72 -26 23 -17 27 -26 27 -68 0 -41 -4 -52 -30
-73 -34 -29 -36 -43 -14 -90 15 -32 15 -36 -5 -75 -12 -23 -30 -46 -41 -52
-27 -14 -122 -9 -128 8 -2 7 6 12 20 12 31 0 65 24 83 61 14 26 14 32 0 60 -9
16 -24 33 -33 36 -18 7 -32 22 -32 36 0 4 17 7 38 7 31 0 43 6 60 30 12 16 22
36 22 44 0 25 -43 64 -77 71 -40 8 -56 -17 -59 -96 -1 -34 -10 -68 -22 -88
-25 -42 -37 -117 -22 -136 24 -29 -12 -44 -67 -29 -25 7 -31 40 -13 72 13 23
70 261 70 293 0 14 3 29 7 32 11 11 42 8 72 -8z m-1632 -124 c21 -27 65 -88
98 -136 33 -48 70 -98 83 -111 28 -32 28 -40 -2 -60 -42 -27 -69 -15 -79 33
-10 51 -33 67 -82 57 -35 -6 -75 -44 -75 -71 0 -8 7 -28 16 -45 15 -30 15 -32
-2 -45 -11 -8 -30 -13 -44 -11 -21 3 -25 8 -23 33 1 17 4 78 7 137 6 126 17
250 23 261 12 20 46 3 80 -42z m2013 9 c14 -11 31 -20 38 -20 34 0 112 -34
117 -50 8 -24 -12 -73 -28 -68 -6 2 -20 19 -29 38 -9 18 -33 42 -52 53 -41 24
-58 15 -82 -41 -30 -72 -9 -113 47 -93 45 16 49 14 49 -17 0 -54 -51 -96 -65
-53 -9 28 -40 52 -59 45 -20 -8 -56 -87 -56 -123 0 -21 8 -30 37 -44 36 -16
38 -16 79 8 24 14 45 25 48 25 10 0 7 -38 -5 -64 -16 -35 -34 -39 -77 -16 -20
11 -55 25 -77 31 -102 26 -109 35 -75 97 29 54 97 233 105 275 6 32 11 37 34
37 14 0 37 -9 51 -20z m-766 -3 c32 -23 10 -47 -44 -47 -50 0 -77 18 -66 45 7
19 85 21 110 2z m-1484 -84 c33 -30 47 -82 36 -127 -8 -32 -41 -64 -83 -82
-43 -18 -43 -46 -1 -108 35 -54 32 -74 -16 -91 -30 -10 -46 3 -46 38 0 11 -6
33 -14 50 -8 18 -30 66 -49 107 -19 41 -37 85 -41 97 -4 11 -13 24 -21 27 -18
7 -20 42 -3 53 35 23 138 61 170 62 28 1 46 -6 68 -26z m2568 -69 c25 -17 29
-46 7 -64 -8 -6 -38 -58 -66 -113 -29 -56 -58 -111 -65 -122 -20 -28 -17 -44
9 -66 29 -24 63 -24 94 1 50 39 70 12 38 -50 -12 -23 -22 -30 -45 -30 -16 0
-32 5 -35 10 -4 6 -42 28 -86 50 -43 22 -79 44 -79 49 0 5 10 22 23 38 33 39
147 258 147 281 0 35 22 42 58 16z m314 -171 c24 -21 23 -43 -3 -68 -32 -31
-159 -217 -165 -243 -7 -27 7 -46 46 -62 25 -11 34 -9 65 10 50 31 66 15 35
-34 -29 -48 -63 -56 -98 -24 -15 14 -53 42 -84 62 -60 37 -70 56 -40 78 9 7
31 33 48 58 115 166 134 196 134 210 0 34 32 40 62 13z m-3476 -60 c7 -30 147
-250 172 -270 17 -14 34 -7 71 28 18 17 22 29 18 55 -3 18 0 40 7 49 12 16 15
15 34 -13 12 -16 22 -44 22 -61 0 -24 -7 -34 -32 -47 -18 -9 -55 -34 -83 -55
-66 -50 -87 -53 -95 -14 -8 33 -139 235 -170 262 -26 22 -25 41 2 70 29 30 46
29 54 -4z m2074 -129 c545 -76 1021 -310 1407 -690 300 -297 500 -615 623
-994 94 -287 121 -469 121 -798 0 -133 -2 -246 -5 -250 -2 -4 -9 -46 -15 -92
-24 -181 -87 -408 -165 -595 -42 -102 -125 -264 -166 -327 -22 -32 -40 -61
-40 -63 0 -5 -91 -138 -100 -145 -3 -3 -25 -32 -50 -65 -45 -61 -286 -307
-350 -358 -224 -179 -487 -331 -710 -411 -58 -21 -121 -43 -140 -51 -62 -23
-301 -74 -425 -90 -113 -15 -553 -24 -573 -11 -4 2 -48 10 -98 16 -256 34
-515 115 -757 237 -178 89 -421 249 -432 284 -3 10 -17 21 -31 26 -36 12 -205
171 -306 288 -106 122 -173 213 -239 325 -28 47 -55 92 -60 100 -47 73 -157
330 -197 460 -27 87 -38 133 -77 320 -36 170 -43 492 -16 725 64 546 319 1064
713 1451 165 162 324 288 478 377 130 76 436 217 471 217 10 0 21 5 24 10 3 6
20 10 36 10 17 0 42 6 57 14 64 32 329 83 502 96 135 11 386 3 520 -16z m1736
-39 c27 -25 66 -60 87 -79 20 -19 37 -39 37 -44 0 -20 -46 -65 -58 -58 -7 4
-12 21 -12 38 0 34 -32 93 -56 102 -21 8 -49 -8 -79 -48 -33 -43 -33 -72 1
-80 14 -4 34 -4 45 -1 28 9 25 -37 -4 -71 -29 -34 -57 -27 -57 14 0 32 -16 52
-41 52 -19 0 -99 -85 -99 -104 0 -7 16 -27 35 -46 34 -33 36 -33 70 -21 57 20
71 1 30 -43 -31 -34 -46 -33 -87 7 -19 17 -55 49 -81 70 -49 40 -59 70 -29 86
27 14 195 208 209 241 6 17 18 30 26 30 8 0 36 -20 63 -45z m-3954 -72 c76
-49 153 -96 172 -105 48 -24 50 -32 20 -67 -32 -38 -48 -39 -71 -3 -40 62 -72
67 -119 16 -42 -44 -42 -64 -3 -108 32 -37 31 -49 -5 -76 -31 -22 -40 -19 -47
20 -6 33 -50 163 -69 205 -5 11 -19 51 -31 88 -18 55 -20 72 -11 92 7 14 15
25 19 25 4 0 69 -39 145 -87z m4227 -199 c18 -24 35 -44 39 -44 15 0 42 -59
42 -92 0 -61 -57 -111 -121 -106 -39 3 -49 -11 -80 -119 -21 -72 -33 -85 -57
-61 -19 19 -14 67 14 140 28 73 22 108 -17 108 -22 0 -79 -51 -98 -88 l-13
-24 -24 23 c-23 22 -33 69 -15 69 14 0 223 185 249 220 27 36 40 32 81 -26z
m-4530 -19 c22 -25 31 -46 31 -70 0 -22 6 -37 18 -44 20 -10 125 -33 162 -35
47 -2 14 -66 -34 -66 -12 0 -46 7 -76 16 -67 19 -89 19 -108 1 -22 -23 -6 -53
49 -88 27 -18 49 -36 49 -41 0 -18 -21 -48 -40 -58 -17 -9 -23 -6 -41 24 -19
33 -173 173 -230 209 -16 11 -29 26 -29 35 0 8 31 46 68 84 62 62 72 68 109
68 34 0 46 -6 72 -35z m-273 -282 c102 -34 171 -97 194 -177 12 -43 11 -51 -9
-91 -33 -66 -83 -105 -133 -105 -58 0 -161 54 -203 105 -36 44 -60 114 -50
148 14 45 61 101 100 118 49 23 41 22 101 2z m5024 -1 c40 -21 100 -105 100
-140 0 -36 -25 -84 -64 -125 -86 -87 -208 -114 -278 -59 -40 30 -78 90 -78
122 0 59 74 151 153 189 72 35 118 38 167 13z m235 -363 c39 -35 78 -113 70
-140 -8 -24 -64 -43 -71 -24 -3 7 -1 22 5 34 16 30 13 59 -9 81 -25 25 -51 25
-79 3 -17 -14 -23 -35 -31 -100 -11 -96 -20 -117 -60 -138 -73 -38 -131 -8
-177 93 -27 60 -24 89 13 98 36 9 45 -5 32 -49 -27 -89 56 -136 114 -63 12 14
18 39 18 77 0 74 14 109 53 137 44 31 79 28 122 -9z m-5257 -69 c18 -11 35
-27 39 -36 6 -17 -79 -195 -103 -215 -13 -11 -19 -8 -37 13 -23 28 -249 148
-278 148 -9 0 -22 7 -29 15 -11 13 -10 22 3 50 19 40 27 43 52 15 26 -28 279
-154 297 -148 8 3 20 24 27 46 13 37 12 43 -8 70 -23 34 -28 62 -8 62 6 0 27
-9 45 -20z m-410 -172 c20 -20 14 -37 -20 -51 -37 -16 -61 -53 -56 -87 2 -19
15 -28 60 -44 53 -19 59 -19 74 -4 14 13 14 21 4 52 -6 19 -9 40 -5 45 6 10
15 8 68 -11 32 -12 36 -44 6 -53 -22 -7 -39 -42 -32 -63 7 -18 92 -53 122 -50
23 3 26 -1 29 -32 4 -61 -10 -69 -70 -38 -29 14 -71 33 -93 41 -22 8 -68 27
-103 41 -35 14 -77 26 -93 26 -27 0 -29 3 -29 36 0 20 6 48 14 62 8 15 22 47
32 72 10 25 22 51 27 58 12 15 49 16 65 0z m5829 -67 c3 -14 12 -35 19 -46 8
-11 14 -29 14 -40 0 -11 7 -29 15 -39 8 -11 15 -26 15 -35 0 -23 -31 -51 -58
-51 -22 0 -24 3 -18 33 19 89 18 93 -7 122 l-24 29 -52 -24 c-43 -21 -51 -29
-51 -53 0 -20 7 -30 25 -37 37 -14 33 -48 -7 -64 -48 -21 -58 -12 -51 44 5 43
3 49 -17 55 -13 4 -37 1 -59 -8 -20 -8 -44 -18 -53 -21 -41 -13 -4 -126 41
-126 9 0 22 -5 29 -12 16 -16 -13 -48 -43 -48 -30 0 -40 14 -71 96 -14 38 -30
81 -36 97 -14 37 -4 61 23 54 12 -3 29 -2 38 3 9 4 35 15 59 24 174 66 208 82
216 103 7 17 9 16 27 -6 11 -13 22 -35 26 -50z m-5972 -1135 c2 -11 7 -77 10
-146 6 -125 26 -305 45 -390 24 -113 41 -189 54 -235 8 -27 19 -66 24 -85 19
-68 85 -246 114 -310 72 -156 102 -217 123 -250 12 -19 36 -60 52 -90 85 -153
246 -369 383 -514 94 -101 96 -103 200 -198 160 -146 365 -293 567 -406 100
-56 278 -142 294 -142 6 0 40 -13 76 -30 35 -16 71 -30 78 -30 20 0 36 -33 25
-50 -10 -16 -39 -8 -125 30 -22 10 -65 28 -95 40 -87 35 -213 97 -295 145 -42
25 -77 45 -80 45 -2 0 -46 28 -97 62 -533 352 -935 840 -1181 1433 -98 238
-181 570 -206 825 -21 217 -24 299 -12 314 16 19 40 10 46 -18z m6125 13 c8
-14 9 -62 5 -147 -31 -598 -249 -1197 -609 -1677 -230 -307 -535 -586 -859
-787 -92 -58 -366 -196 -442 -224 -27 -10 -60 -24 -72 -32 -28 -17 -77 -12
-81 9 -2 10 9 21 30 29 119 46 334 146 417 193 501 285 904 684 1173 1162 44
79 140 273 173 350 51 120 123 366 158 535 36 177 38 196 58 445 5 77 12 146
14 153 6 18 23 15 35 -9z m-3828 -2619 c46 -13 53 -23 35 -52 -15 -25 -46
-134 -86 -301 -17 -71 -14 -86 23 -123 55 -55 120 -45 155 24 24 47 83 293 81
335 -1 18 -2 38 -1 45 2 26 96 6 107 -22 3 -8 -3 -27 -15 -43 -11 -15 -34 -86
-51 -158 -52 -217 -85 -261 -193 -258 -80 3 -120 18 -157 59 -26 31 -30 42
-30 96 0 34 6 87 14 117 8 31 22 83 30 117 9 33 16 86 16 117 0 63 3 66 72 47z
m1474 -66 c50 -21 81 -49 107 -99 22 -43 48 -162 42 -192 -2 -10 -7 -35 -10
-56 -7 -46 -65 -114 -115 -135 -19 -8 -74 -25 -122 -37 -95 -25 -111 -21 -101
26 5 26 -26 187 -47 249 -5 14 -12 43 -16 65 -4 22 -17 61 -30 87 -30 60 -20
69 106 93 93 18 142 17 186 -1z m-926 -48 c41 -3 99 -5 128 -5 48 -1 53 -4 63
-28 12 -32 -1 -98 -20 -98 -7 0 -25 18 -40 40 -24 36 -32 40 -80 45 -30 3 -59
1 -66 -5 -7 -5 -15 -43 -19 -82 -5 -64 -4 -75 13 -92 24 -24 55 -18 93 17 23
22 30 23 44 12 13 -11 15 -25 9 -69 -4 -31 -13 -63 -21 -71 -13 -13 -18 -11
-42 18 -21 25 -36 33 -61 34 -18 1 -37 -5 -42 -13 -6 -8 -8 -60 -6 -117 4 -97
3 -103 -17 -107 -12 -3 -37 -1 -56 3 -40 9 -39 -5 -16 167 17 131 23 278 12
322 -7 26 -5 32 10 35 11 2 24 3 29 2 6 -2 44 -5 85 -8z m512 -2 c15 -9 20
-72 7 -95 l-12 -23 -34 39 c-31 36 -39 40 -80 40 -35 0 -49 -5 -64 -24 -44
-54 -14 -105 97 -161 104 -54 129 -85 128 -161 -1 -98 -53 -137 -185 -142 -64
-2 -80 1 -98 17 -30 27 -26 90 6 94 14 2 23 -3 28 -17 17 -54 120 -67 157 -19
34 44 15 116 -36 139 -11 5 -28 13 -36 18 -8 5 -32 17 -53 27 -63 31 -97 77
-97 131 0 103 83 160 214 147 28 -3 53 -7 58 -10z"/>
<path d="M2849 6486 c-8 -17 -8 -39 1 -80 14 -69 33 -83 78 -54 70 44 41 157
-41 158 -19 0 -31 -7 -38 -24z"/>
<path d="M2486 6333 c-3 -4 -6 -28 -6 -55 0 -35 6 -54 20 -68 26 -26 36 -25
56 4 15 23 14 27 -11 70 -25 43 -47 61 -59 49z"/>
<path d="M2163 6300 c-30 -12 -30 -51 0 -109 31 -60 50 -71 78 -46 50 46 43
121 -15 149 -19 9 -36 16 -38 15 -1 0 -13 -4 -25 -9z"/>
<path d="M4107 5743 c-10 -9 -9 -51 2 -57 11 -7 22 46 12 57 -4 4 -10 4 -14 0z"/>
<path d="M2882 5660 c0 -19 2 -27 5 -17 2 9 2 25 0 35 -3 9 -5 1 -5 -18z"/>
<path d="M3166 5643 c-11 -3 -33 -18 -49 -34 -27 -27 -28 -31 -17 -64 6 -20
23 -49 37 -65 21 -26 32 -30 73 -30 41 0 52 4 69 26 28 35 27 67 -1 79 -13 6
-32 29 -43 53 -19 41 -28 45 -69 35z"/>
<path d="M2772 5610 c-15 -13 -22 -29 -22 -53 0 -20 -9 -46 -22 -62 -26 -33
-18 -51 35 -80 34 -18 38 -19 79 -4 38 14 44 20 52 57 5 23 5 61 0 88 -9 46
-11 49 -44 54 -20 4 -40 9 -45 12 -6 3 -20 -2 -33 -12z m65 -71 c13 -13 5 -49
-12 -49 -19 0 -38 28 -31 45 6 18 27 20 43 4z"/>
<path d="M4038 5583 c-14 -14 -19 -14 -33 -3 -26 21 -35 -3 -35 -93 0 -69 3
-81 25 -102 36 -37 94 -34 140 6 41 36 42 45 14 75 -11 12 -23 41 -26 63 -8
61 -52 88 -85 54z m42 -82 c0 -20 -19 -41 -37 -41 -22 0 -27 29 -8 50 19 21
45 16 45 -9z"/>
<path d="M2431 5548 c-1 -31 -6 -40 -38 -58 -50 -28 -79 -87 -62 -124 18 -40
82 -79 116 -72 51 12 85 47 87 92 1 34 -2 39 -20 37 -35 -4 -66 39 -74 104 -6
44 -8 49 -9 21z m27 -162 c2 -10 -2 -22 -9 -26 -20 -13 -39 0 -39 27 0 20 4
24 22 21 13 -2 24 -11 26 -22z"/>
<path d="M4477 5523 c-4 -3 -7 -15 -7 -25 0 -26 24 -17 28 10 3 21 -8 29 -21
15z"/>
<path d="M4468 5400 c-11 -33 -34 -50 -68 -50 -11 0 -23 -6 -26 -14 -9 -24 24
-85 58 -106 61 -37 118 -19 163 53 17 27 17 29 -1 64 -45 87 -105 112 -126 53z
m50 -93 c4 -31 -20 -46 -43 -27 -18 15 -20 46 -2 53 25 11 42 1 45 -26z"/>
<path d="M4340 5406 c0 -8 5 -18 10 -21 6 -3 10 3 10 14 0 12 -4 21 -10 21 -5
0 -10 -6 -10 -14z"/>
<path d="M2971 4636 c-343 -343 -452 -458 -447 -471 5 -15 20 -16 120 -13 109
3 115 4 141 31 51 51 64 32 60 -86 -1 -37 -5 -71 -9 -75 -4 -4 -312 -8 -684
-9 l-676 -3 -46 -45 c-46 -45 -70 -56 -70 -32 0 7 -6 22 -14 32 -11 16 -16 17
-29 7 -10 -9 -28 -11 -51 -7 -32 7 -36 5 -42 -21 -9 -35 5 -56 47 -70 18 -6
35 -17 37 -23 2 -7 -17 -34 -43 -62 -25 -27 -45 -55 -42 -62 3 -11 71 -26 120
-28 24 0 22 -5 -17 -45 -30 -31 -39 -35 -67 -29 -38 9 -49 -4 -49 -60 0 -62 9
-69 94 -73 42 -2 77 -7 77 -11 4 -19 7 -579 3 -593 -3 -9 -18 -21 -33 -26 -26
-9 -30 -16 -35 -64 -13 -116 -15 -111 29 -134 l40 -21 -1 -147 c-2 -140 -1
-146 17 -141 14 5 21 0 28 -18 7 -19 53 -47 76 -47 1 0 5 13 8 28 7 33 44 55
70 40 22 -12 32 11 23 54 -12 62 -46 59 678 58 430 -1 676 -5 704 -12 76 -19
71 -49 74 524 l3 509 165 1 165 1 3 -224 c3 -241 0 -278 -22 -260 -18 15 -26
-6 -26 -69 0 -56 8 -82 22 -74 22 14 28 -28 28 -207 0 -153 3 -189 15 -199 12
-10 20 -9 40 4 l25 17 -2 162 c-1 108 3 175 11 202 8 27 11 66 7 115 -9 108
-22 481 -17 507 1 12 8 23 15 25 6 2 79 1 161 -2 l150 -5 2 -505 c2 -576 -4
-537 87 -519 27 5 381 8 815 8 l766 -2 2 344 c2 189 5 349 8 356 2 7 14 13 25
13 12 0 24 9 29 23 13 33 30 44 79 50 24 3 45 7 46 9 2 1 6 21 9 43 5 35 2 45
-27 79 l-34 39 -58 -11 c-32 -7 -61 -9 -65 -5 -10 10 -14 277 -5 292 4 6 18
11 31 11 24 0 24 -2 22 -71 -3 -89 8 -99 105 -99 76 0 85 8 90 74 3 44 -20 71
-51 61 -16 -5 -20 -12 -16 -27 10 -28 -3 -68 -21 -68 -20 0 -28 24 -15 47 5
11 13 47 17 81 6 59 5 62 -18 71 -13 5 -68 56 -122 113 -54 56 -105 107 -112
111 -8 5 -316 8 -684 8 -396 0 -672 4 -675 10 -3 5 -8 47 -10 94 -5 101 7 116
56 69 30 -29 32 -29 147 -29 96 0 117 3 120 15 3 15 -895 920 -913 920 -6 0
-214 -204 -464 -454z m563 -102 c61 -34 106 -108 106 -175 0 -72 -44 -147
-106 -181 -106 -58 -221 -24 -276 81 -36 68 -36 121 -2 190 53 106 174 143
278 85z m222 -545 c11 -9 14 -39 14 -130 0 -115 -1 -120 -22 -128 -33 -12
-616 -7 -628 5 -15 15 -17 238 -3 256 10 12 63 14 318 12 219 -2 310 -6 321
-15z m-2442 -411 c11 -15 12 -25 5 -34 -20 -25 -53 9 -42 44 7 18 20 15 37
-10z m675 -72 c16 -14 17 -34 14 -178 -2 -90 -9 -168 -14 -175 -8 -8 -54 -12
-164 -12 -134 0 -155 2 -169 18 -14 15 -16 42 -14 177 3 149 4 159 24 169 11
5 85 11 163 13 119 3 146 1 160 -12z m564 -4 c15 -13 17 -35 17 -173 0 -198
13 -186 -197 -188 -142 -2 -152 -1 -162 18 -7 11 -11 83 -11 168 0 203 -11
191 182 191 122 0 157 -4 171 -16z m2095 5 c16 -19 18 -316 3 -345 -11 -21
-16 -22 -171 -22 -147 0 -160 1 -170 19 -6 11 -10 87 -10 175 0 140 2 156 19
168 26 18 314 23 329 5z m562 -7 c6 -10 10 -89 10 -179 0 -143 -2 -161 -17
-169 -30 -14 -312 -15 -329 -1 -11 9 -14 45 -14 175 0 148 2 164 19 176 13 9
64 14 169 15 140 2 152 1 162 -17z m-3222 -499 c19 -11 27 -321 9 -344 -17
-22 -308 -30 -337 -10 -18 13 -20 26 -20 169 0 133 2 156 18 172 14 14 40 17
167 19 83 2 156 -1 163 -6z m565 -9 c15 -13 17 -35 17 -173 0 -154 -1 -159
-22 -171 -16 -8 -70 -12 -173 -10 -125 1 -152 4 -162 17 -8 12 -10 62 -8 168
2 84 4 156 4 160 2 19 55 26 186 25 110 -1 144 -4 158 -16z m2096 4 c18 -21
23 -279 8 -325 l-12 -34 -159 -1 c-123 -1 -162 1 -173 12 -11 11 -13 49 -11
175 3 157 4 162 26 173 13 7 83 12 166 13 117 2 145 -1 155 -13z m551 4 c19
-10 20 -22 20 -174 0 -122 -3 -166 -13 -174 -8 -7 -75 -13 -160 -15 -199 -6
-187 -18 -187 183 0 128 3 161 15 174 12 11 45 15 160 15 84 1 154 -3 165 -9z"/>
<path d="M1820 5046 c0 -7 7 -19 15 -26 8 -7 15 -28 15 -47 0 -32 -2 -35 -22
-30 -15 4 -30 -1 -45 -15 -27 -25 -29 -50 -7 -84 12 -18 15 -37 10 -70 -6 -44
-5 -45 30 -60 45 -19 80 -12 127 27 52 43 50 76 -8 160 -25 35 -50 76 -56 92
-6 15 -14 27 -19 27 -4 0 -10 9 -13 20 -6 23 -27 27 -27 6z m68 -178 c7 -7 12
-20 12 -30 0 -23 -52 -25 -70 -3 -25 30 30 61 58 33z"/>
<path d="M1650 5032 c0 -10 22 -32 32 -32 15 0 8 28 -8 34 -21 8 -24 8 -24 -2z"/>
<path d="M5204 4912 c-23 -16 -146 -217 -151 -247 -4 -28 0 -38 23 -61 48 -44
85 -56 131 -40 38 13 38 13 35 63 -3 36 1 53 12 62 23 19 19 61 -9 95 -20 25
-26 28 -39 17 -13 -11 -17 -10 -25 10 -9 26 -8 29 23 71 20 28 20 43 0 30z
m-10 -185 c22 -16 12 -43 -20 -51 -44 -11 -58 12 -27 46 19 21 24 22 47 5z"/>
<path d="M5342 4865 c-12 -19 -19 -35 -15 -35 16 1 53 39 53 54 0 25 -13 19
-38 -19z"/>
<path d="M1570 4691 c-6 -12 -17 -21 -24 -21 -19 0 -46 -33 -46 -58 0 -11 10
-28 22 -36 15 -11 21 -25 20 -50 -1 -26 4 -39 18 -46 34 -18 60 -11 102 28 51
48 48 69 -19 144 -55 63 -59 65 -73 39z m44 -84 c14 -22 -5 -41 -33 -32 -23 7
-27 25 -9 43 15 15 28 11 42 -11z"/>
<path d="M5362 4421 c-49 -58 -53 -87 -16 -130 21 -25 33 -31 65 -31 l39 0 0
41 c0 39 -2 41 -25 37 -14 -3 -33 0 -42 7 -15 11 -15 17 -5 39 17 38 60 34 75
-7 11 -30 42 -17 42 18 0 24 -6 31 -30 40 -16 5 -34 15 -38 22 -13 21 -21 16
-65 -36z"/>
<path d="M1317 4292 c-23 -25 -42 -81 -31 -92 20 -20 107 -60 129 -60 52 0 83
93 49 146 -15 21 -19 23 -33 11 -28 -25 -48 -26 -67 -6 -21 24 -27 24 -47 1z
m74 -58 c11 -30 -5 -52 -25 -35 -17 14 -21 42 -9 55 11 10 25 2 34 -20z"/>
<path d="M5565 4060 c-20 -38 -19 -42 10 -74 45 -49 125 -23 125 42 0 37 -17
54 -42 41 -14 -8 -26 -6 -43 5 -32 21 -32 21 -50 -14z"/>
<path d="M5570 2930 c-25 -25 -26 -62 0 -85 18 -17 20 -17 26 0 5 12 14 15 34
12 33 -7 50 8 50 45 0 48 -72 66 -110 28z"/>
<path d="M1380 2208 c0 -19 2 -20 10 -8 13 19 13 30 0 30 -5 0 -10 -10 -10
-22z"/>
<path d="M5085 2149 c-54 -50 -56 -72 -12 -131 36 -47 83 -62 107 -34 7 9 18
16 25 16 6 0 20 9 30 21 18 19 18 21 1 54 -12 23 -17 44 -13 64 5 24 2 33 -13
41 -40 21 -79 12 -125 -31z"/>
<path d="M2100 1921 c-29 -11 -44 -23 -41 -32 12 -49 4 -89 -23 -118 l-28 -30
33 -40 c33 -39 61 -51 74 -31 9 14 21 12 40 -6 15 -15 17 -15 35 1 26 24 70
117 70 149 0 17 -16 43 -48 76 -27 28 -53 50 -58 49 -5 0 -29 -8 -54 -18z"/>
<path d="M4476 1670 c-39 -25 -46 -38 -46 -90 0 -81 4 -87 73 -94 81 -8 93 4
101 105 6 74 6 76 -19 87 -36 17 -75 14 -109 -8z m79 -60 c11 -36 -4 -62 -33
-58 -28 3 -40 32 -28 64 8 22 54 18 61 -6z"/>
<path d="M2384 1628 c-59 -54 -72 -85 -44 -105 11 -8 20 -20 20 -28 0 -17 31
-35 60 -35 13 0 24 9 30 25 8 22 16 25 54 25 36 0 46 4 51 20 10 31 -11 87
-42 114 -42 38 -76 33 -129 -16z m66 -74 c0 -42 -25 -47 -42 -8 -10 22 -10 28
6 40 26 18 36 9 36 -32z"/>
<path d="M2798 1468 c-15 -16 -33 -47 -39 -68 -10 -34 -9 -42 10 -68 11 -17
21 -36 21 -43 0 -10 3 -10 12 -1 18 18 36 14 43 -9 5 -15 10 -18 18 -10 18 18
37 13 47 -11 7 -20 9 -17 9 18 1 50 32 94 67 94 34 0 31 29 -8 73 -28 30 -43
37 -93 45 -58 10 -60 9 -87 -20z"/>
<path d="M4148 1399 c-42 -22 -71 -59 -66 -85 2 -10 17 -22 35 -28 17 -6 40
-22 50 -35 l20 -24 41 41 c23 23 42 46 42 51 0 14 -44 73 -65 87 -17 10 -26 9
-57 -7z"/>
<path d="M3693 1389 c-56 -16 -71 -104 -26 -151 46 -49 103 -34 103 27 0 19 8
39 20 50 25 23 26 47 2 68 -20 19 -50 20 -99 6z"/>
<path d="M2310 1349 c0 -11 5 -17 10 -14 6 3 10 13 10 21 0 8 -4 14 -10 14 -5
0 -10 -9 -10 -21z"/>
<path d="M3267 1339 c-22 -13 -56 -84 -57 -117 0 -15 8 -26 24 -32 13 -5 26
-15 28 -22 5 -15 70 -18 80 -3 4 5 8 19 8 31 0 11 14 33 30 49 36 35 37 49 5
80 -26 27 -84 34 -118 14z"/>
<path d="M1460 5743 c0 -23 42 -113 53 -113 11 0 57 47 57 59 0 12 -83 71 -99
71 -6 0 -11 -8 -11 -17z"/>
<path d="M5705 5509 c-50 -46 -56 -72 -22 -100 44 -37 127 5 127 66 0 35 -24
75 -46 75 -8 0 -35 -19 -59 -41z"/>
<path d="M1116 5519 c-14 -11 -26 -28 -26 -37 0 -21 88 -102 111 -102 10 0 23
16 33 41 16 39 16 43 0 68 -36 55 -74 65 -118 30z"/>
<path d="M855 5205 c-30 -30 -31 -59 -4 -104 27 -44 51 -64 123 -101 72 -37
105 -38 141 -4 23 21 27 31 22 61 -12 70 -146 173 -227 173 -19 0 -40 -9 -55
-25z"/>
<path d="M5872 5204 c-128 -73 -165 -195 -67 -220 54 -13 183 57 227 124 10
15 18 41 18 57 0 83 -72 99 -178 39z"/>
<path d="M4022 758 c-16 -16 -15 -64 2 -119 8 -24 26 -96 41 -161 14 -64 32
-124 39 -134 13 -16 15 -16 57 0 55 22 77 41 95 85 27 64 10 185 -35 263 -37
61 -162 103 -199 66z"/>
</g>
</svg>
