<svg id="SvgjsSvg1001" width="288" height="288" xmlns="http://www.w3.org/2000/svg" version="1.1" xmlns:xlink="http://www.w3.org/1999/xlink" xmlns:svgjs="http://svgjs.com/svgjs"><defs id="SvgjsDefs1002"></defs><g id="SvgjsG1008" transform="matrix(0.9167,0,0,0.9167,11.995200000000011,11.995199364471432)"><svg xmlns="http://www.w3.org/2000/svg" width="288" height="288" enable-background="new 0 0 31.79 31.79" viewBox="0 0 31.79 31.79"><path d="M16.118,9.33c-1.32,0-2.394,1.074-2.394,2.395c0,1.319,1.073,2.394,2.394,2.394s2.396-1.074,2.396-2.394
			C18.514,10.404,17.438,9.33,16.118,9.33z M16.047,9.526h0.239v0.272c-0.039-0.002-0.079-0.005-0.119-0.005s-0.08,0.003-0.12,0.005
			V9.526z M15.21,9.799l0.098,0.192c-0.037,0.018-0.072,0.035-0.106,0.056l-0.099-0.194L15.21,9.799z M13.929,11.644h0.272
			c-0.002,0.04-0.005,0.08-0.005,0.12c0,0.039,0.003,0.078,0.005,0.118h-0.272V11.644z M14.199,12.891l-0.055-0.105l0.263-0.135
			c0.019,0.036,0.038,0.07,0.059,0.104L14.199,12.891z M14.487,10.737L14.29,10.6l0.068-0.097l0.193,0.133
			C14.528,10.669,14.508,10.702,14.487,10.737z M15.004,13.737l-0.1-0.064l0.172-0.268c0.033,0.022,0.067,0.042,0.103,0.063
			L15.004,13.737z M16.286,14.003h-0.239V13.73c0.04,0.002,0.08,0.006,0.12,0.006s0.08-0.004,0.119-0.006V14.003z M17.124,13.847
			l-0.146-0.288c0.035-0.017,0.07-0.033,0.105-0.052l0.146,0.287L17.124,13.847z M17.363,11.881h-1.279l-0.968,1.061l-0.026-0.023
			l0.992-1.09v-0.105v-0.078v-1.641h0.169v1.641h1.112V11.881z M17.311,10.159c-0.033-0.022-0.065-0.044-0.1-0.065l0.118-0.185
			l0.101,0.065L17.311,10.159z M17.977,13.144l-0.252-0.174c0.022-0.032,0.049-0.063,0.07-0.096l0.249,0.17L17.977,13.144z
			 M18.404,11.882h-0.272c0.003-0.04,0.007-0.079,0.007-0.118c0-0.04-0.004-0.08-0.007-0.12h0.272V11.882z M18.135,10.755
			l0.055,0.106l-0.217,0.11c-0.017-0.036-0.033-0.072-0.053-0.106L18.135,10.755z" fill="#00c2bd" class="color000 svgShape"></path><path d="M21.805,15.549v-4.707l-5.734-5.42l-5.707,5.42v4.707H0v13.465h14.186v-5.791h3.768v5.791l13.836,0.043V15.592
			L21.805,15.549z M4.515,24.735h-2.51v-2.452h2.51V24.735z M4.601,21.254h-2.51v-2.453h2.51V21.254z M8.081,24.735H5.57v-2.452
			h2.511V24.735z M8.167,21.254h-2.51v-2.453h2.51V21.254z M11.818,24.735h-2.51v-2.452h2.511L11.818,24.735L11.818,24.735z
			 M11.905,21.254h-2.51v-2.453h2.511L11.905,21.254L11.905,21.254z M16.118,14.608c-1.59,0-2.883-1.294-2.883-2.883
			c0-1.591,1.293-2.884,2.883-2.884c1.59,0,2.884,1.293,2.884,2.884C19.002,13.314,17.708,14.608,16.118,14.608z M22.545,24.879
			h-2.51v-2.455h2.51V24.879z M22.631,21.254h-2.51v-2.453h2.51V21.254z M26.111,24.879H23.6v-2.455h2.512V24.879z M26.197,21.254
			h-2.51v-2.453h2.51V21.254z M29.85,24.879h-2.512v-2.455h2.512V24.879z M29.936,21.254h-2.512v-2.453h2.512V21.254z" fill="#00c2bd" class="color000 svgShape"></path><polygon points="16.158 4.645 22.79 11.241 23.756 10.27 16.177 2.733 8.322 10.234 9.269 11.225" fill="#00c2bd" class="color000 svgShape"></polygon></svg></g></svg>